SplineFontDB: 3.0
FontName: JournalCLM-Light
FullName: Journal CLM Light
FamilyName: Journal CLM
Weight: Light
Copyright: Copyright 2010 by Maxim Iorsh (iorsh@users.sourceforge.net). Distributed under the terms of GNU General Public License version 2(http://www.gnu.org/licenses/gpl.html). All rights reserved.
UComments: "2008-4-4: Created." 
Version: 0.105
ItalicAngle: 0
UnderlinePosition: -100
UnderlineWidth: 50
Ascent: 700
Descent: 300
LayerCount: 2
Layer: 0 0 "Back"  1
Layer: 1 0 "Fore"  0
XUID: [1021 50 1840131271 4387328]
FSType: 0
OS2Version: 0
OS2_WeightWidthSlopeOnly: 0
OS2_UseTypoMetrics: 1
CreationTime: 1207340925
ModificationTime: 1283446898
PfmFamily: 17
TTFWeight: 500
TTFWidth: 5
LineGap: 90
VLineGap: 0
OS2TypoAscent: 0
OS2TypoAOffset: 1
OS2TypoDescent: 0
OS2TypoDOffset: 1
OS2TypoLinegap: 90
OS2WinAscent: 0
OS2WinAOffset: 1
OS2WinDescent: 0
OS2WinDOffset: 1
HheadAscent: 0
HheadAOffset: 1
HheadDescent: 0
HheadDOffset: 1
OS2Vendor: 'PfEd'
DEI: 91125
ShortTable: maxp 16
  0
  0
  0
  0
  0
  0
  0
  2
  1
  0
  20
  0
  256
  0
  0
  0
EndShort
TtTable: prep
PUSHW_1
 511
SCANCTRL
PUSHB_1
 1
SCANTYPE
SVTCA[y-axis]
MPPEM
PUSHB_1
 8
LT
IF
PUSHB_2
 1
 1
INSTCTRL
EIF
PUSHB_2
 70
 6
CALL
IF
POP
PUSHB_1
 16
EIF
MPPEM
PUSHB_1
 20
GT
IF
POP
PUSHB_1
 128
EIF
SCVTCI
PUSHB_1
 6
CALL
NOT
IF
EIF
EndTTInstrs
TtTable: fpgm
PUSHB_1
 0
FDEF
PUSHB_1
 0
SZP0
MPPEM
PUSHB_1
 42
LT
IF
PUSHB_1
 74
SROUND
EIF
PUSHB_1
 0
SWAP
MIAP[rnd]
RTG
PUSHB_1
 6
CALL
IF
RTDG
EIF
MPPEM
PUSHB_1
 42
LT
IF
RDTG
EIF
DUP
MDRP[rp0,rnd,grey]
PUSHB_1
 1
SZP0
MDAP[no-rnd]
RTG
ENDF
PUSHB_1
 1
FDEF
DUP
MDRP[rp0,min,white]
PUSHB_1
 12
CALL
ENDF
PUSHB_1
 2
FDEF
MPPEM
GT
IF
RCVT
SWAP
EIF
POP
ENDF
PUSHB_1
 3
FDEF
ROUND[Black]
RTG
DUP
PUSHB_1
 64
LT
IF
POP
PUSHB_1
 64
EIF
ENDF
PUSHB_1
 4
FDEF
PUSHB_1
 6
CALL
IF
POP
SWAP
POP
ROFF
IF
MDRP[rp0,min,rnd,black]
ELSE
MDRP[min,rnd,black]
EIF
ELSE
MPPEM
GT
IF
IF
MIRP[rp0,min,rnd,black]
ELSE
MIRP[min,rnd,black]
EIF
ELSE
SWAP
POP
PUSHB_1
 5
CALL
IF
PUSHB_1
 70
SROUND

StartChar: afii57664
Encoding: 1488 1488 0
Width: 522
Flags: HMW
LayerCount: 2
Back
SplineSet
267.545 226.338 m 4
 342.355 138.275 422.532 42.4297 463.364 -15.7881 c 13
 468.512 48.5928 l 21
 426.014 66.8652 358.929 153.396 284.242 239.716 c 4
 199.432 339.128 108.269 449.299 61.6357 515.788 c 13
 56.4883 451.407 l 21
 114.221 420.713 176.023 333.485 267.545 226.338 c 4
200.606 310.495 m 13
 190 339 l 21
 169.5 332 149.695 321.441 129.118 305.363 c 4
 101.258 283.599 81.6338 238.533 74.2627 178.485 c 4
 71.5996 156.07 66.9023 123.955 64.833 107.102 c 4
 59.7539 64.4375 54.666 23.0039 50 -15 c 13
 101.795 8.86523 l 21
 75.666 46.3281 77.1758 85.3428 88.0762 167.918 c 4
 93.6211 213.079 107.046 256.891 133.792 277.786 c 4
 156.378 295.432 177 305 200.606 310.495 c 13
321.833 187.508 m 13
 332.5 159.5 l 21
 355 168 374.091 178.437 394.667 194.514 c 4
 422.528 216.279 440.366 261.467 447.737 321.515 c 4
 450.401 343.929 455.098 376.045 457.167 392.897 c 4
 462.247 435.562 467.334 476.995 472 515 c 13
 419.709 491.195 l 21
 449.416 462.36 442.214 394.844 433.863 331.586 c 4
 428.318 286.425 416.679 242.492 389.933 221.596 c 4
 367.347 203.95 347.5 194 321.833 187.508 c 13
266.333 226.667 m 4
 335.952 138.699 410.495 42.9814 448 -15 c 13
 456.216 48.1064 l 21
 415.122 66.9023 353.06 153.21 283.479 239.465 c 4
 204.532 338.777 119.833 448.781 77 515 c 13
 68.7842 451.894 l 21
 124.323 420.595 181.133 333.709 266.333 226.667 c 4
EndSplineSet
Fore
SplineSet
267.545 226.338 m 1
 342.355 138.275 422.532 42.4297 463.364 -15.7881 c 1
 468.512 48.5928 l 1
 438.441 61.5219 396.061 108.625 347.388 165.647 c 1
 363.765 173.042 378.773 182.096 394.667 194.514 c 0
 422.527 216.28 440.366 261.467 447.737 321.515 c 0
 450.487 343.918 455.098 376.045 457.167 392.897 c 0
 462.247 435.562 467.334 476.995 472 515 c 1
 419.709 491.195 l 1
 449.416 462.36 441.926 394.88 433.863 331.586 c 0
 428.113 286.451 416.679 242.492 389.933 221.596 c 0
 369.04 205.273 350.492 195.535 327.512 189.028 c 1
 284.242 239.716 l 2
 199.432 339.128 108.269 449.299 61.6357 515.788 c 1
 56.4883 451.407 l 1
 93.0649 431.961 131.275 389.822 177.642 334.303 c 1
 161.462 327.506 145.537 318.191 129.118 305.363 c 0
 101.259 283.597 81.6338 238.533 74.2627 178.485 c 0
 71.5125 156.081 66.9023 123.955 64.833 107.102 c 0
 59.7539 64.4375 54.666 23.0039 50 -15 c 1
 101.795 8.86523 l 1
 75.666 46.3281 77.5508 85.295 88.0762 167.918 c 0
 93.826 213.053 107.046 256.891 133.792 277.786 c 0
 155.518 294.76 175.426 304.26 197.922 309.849 c 1
 267.545 226.338 l 1
EndSplineSet
EndChar

StartChar: afii57669
Encoding: 1493 1493 1
Width: 265
Flags: HMW
LayerCount: 2
Back
SplineSet
154.456 42 m 6
 146.702 433.812 l 6
 146.27 455.632 142.588 473.869 129.247 485.274 c 4
 116.7 496 101.018 500 81.791 500 c 6
 49.1553 500 l 6
 32.6562 500 22.2158 488.288 25.6553 473 c 6
 34.6553 433 l 6
 37.8223 418.925 48.6523 410 62.6553 410 c 6
 76.6553 410 l 6
 82.7002 410 87.1445 407.421 90.1553 404 c 4
 94.1553 399.454 96.583 391.465 96.1553 383.5 c 6
 77.6553 39 l 6
 76.876 24.4932 77.291 16.1797 80.9053 8.5 c 4
 84.9053 0 98.8643 -6.53809 111.405 -0.851562 c 6
 136.439 10.5 l 6
 148.019 15.751 154.742 27.5195 154.456 42 c 6
EndSplineSet
Fore
SplineSet
150.658 392 m 0
 150.658 301 150.5 110 165.5 30 c 9
 120.5 -15 l 17
 132.236 67.1562 134.29 237.473 135.5 391 c 0
 135.5 418 134 474 90 485 c 9
 150.5 515 l 17
 150.5 476.71 150.5 434.966 150.658 392 c 0
EndSplineSet
EndChar

StartChar: afii57670
Encoding: 1494 1494 3
Width: 290
Flags: HMW
LayerCount: 2
Back
SplineSet
32 515 m 9
 77 470 l 17
 157 485 255 485 346 485 c 1
 346 320 352 121 337 -15 c 9
 382 30 l 17
 372 156 367 335 367 485 c 1
 394 485 420.637 482.323 440 470 c 9
 470 500 l 17
 294 500 137 500 32 515 c 9
EndSplineSet
Fore
SplineSet
30 515 m 17
 98 500 166 500 260 500 c 9
 236 476 l 17
 208.5 485 184 485 157 485 c 1
 157 335 162 156 172 30 c 9
 127 -15 l 17
 142 121 136 319 136 484 c 5
 116 482.666 94.1667 478.5 75 470 c 9
 30 515 l 17
EndSplineSet
EndChar

StartChar: afii57675
Encoding: 1499 1499 4
Width: 487
Flags: HMW
LayerCount: 2
Back
SplineSet
221 0 m 0
 178.677 0 122 0 47 -15 c 9
 92 30 l 17
 147 15 201.039 15 220.824 15 c 0
 287.191 15 325.836 31.6416 363 68.4824 c 0
 401.856 107 413 176.289 413 249.998 c 0
 413 323.71 397.856 397 363 431.518 c 0
 325.816 468.339 287.191 485 220.824 485 c 0
 198.789 485 141 482.5 92 470 c 9
 47 515 l 17
 112.5 502.5 178.677 500 221 499.996 c 0
 288.072 499.996 341 485 383 443.1 c 0
 429.571 396.639 442.957 328.412 442.957 249.996 c 0
 442.957 171.583 429.573 103.354 383 56.8965 c 0
 341 15 288.072 0 221 0 c 0
EndSplineSet
Fore
SplineSet
221 0 m 0
 178.677 0 122 0 47 -10 c 9
 92 35 l 17
 146.5 15 201.039 15 220.824 15 c 0
 287.191 15 325.836 31.6416 363 68.4824 c 0
 401.856 107 413 176.289 413 249.998 c 0
 413 323.71 397.856 397 363 431.518 c 0
 325.816 468.339 287.191 485 220.824 485 c 4
 198.789 485 141 482.5 92 470 c 13
 47 515 l 21
 112.5 502.5 178.677 500 221 499.996 c 4
 288.072 499.996 341 485 383 443.1 c 0
 429.571 396.639 442.957 328.412 442.957 249.996 c 0
 442.957 171.583 429.573 103.354 383 56.8965 c 0
 341 15 288.072 0 221 0 c 0
EndSplineSet
EndChar

StartChar: afii57684
Encoding: 1508 1508 5
Width: 517
Flags: HMW
LayerCount: 2
Back
SplineSet
187 264 m 13
 142 219 l 21
 109 257 93 301 93 353 c 4
 93 410.261 126 462 167 483 c 13
 187 484 l 21
 141 453 114 409 114 355 c 4
 114 303 140 252 187 264 c 13
92 470.005 m 9
 47 515 l 17
 112.5 502.5 170.5 499.996 251 499.996 c 0
 318.072 499.996 371 485 413 443.1 c 0
 459.571 396.639 472.957 328.412 472.957 249.996 c 0
 472.957 171.583 459.573 103.354 413 56.8965 c 0
 371 15 318.072 0 251 0 c 0
 167 0 122 0 47 -15 c 9
 92 30 l 17
 147 15 193.5 15 250.824 15 c 0
 317.191 15 355.836 31.6416 393 68.4824 c 0
 431.856 107 443 176.289 443 249.998 c 0
 443 323.71 427.856 397 393 431.518 c 0
 355.816 468.339 317 485 250.824 485 c 0
 175.5 485 141.541 483.373 92 470.005 c 9
EndSplineSet
Fore
SplineSet
92 470.005 m 1
 47 515 l 1
 112.5 502.5 170.5 499.996 251 499.996 c 0
 318.072 499.996 371 485 413 443.1 c 0
 459.571 396.639 472.957 328.412 472.957 249.996 c 0
 472.957 171.583 459.573 103.354 413 56.8965 c 0
 371 15.0002 318.072 0 251 0 c 0
 167 0 122 0 47 -10 c 1
 92 35 l 1
 147.333 16.6667 193.5 15 250.824 15 c 0
 317.191 15 355.836 31.6417 393 68.4824 c 0
 431.856 107 443 176.287 443 249.996 c 0
 443 323.708 427.856 397 393 431.518 c 0
 355.816 468.339 317 485 250.824 485 c 0
 225.662 485 205.117 484.818 187.064 484.078 c 1
 141.308 453.091 114 408.841 114 355 c 0
 114 303 140 252 187 264 c 1
 142 219 l 1
 109 257 93 301 93 353 c 0
 93 409.867 126.069 461.636 166.683 482.915 c 1
 140.454 480.932 118.447 477.141 92 470.005 c 1
EndSplineSet
EndChar

StartChar: afii57671
Encoding: 1495 1495 6
Width: 566
Flags: HMW
LayerCount: 2
Back
SplineSet
92 470.005 m 9
 47 515 l 17
 122 500 238 500 320 500 c 4
 380.5 500 414 485 439 460 c 4
 471 428 478 386.5 478 324 c 4
 478 212 479 128 488 30 c 13
 443 -15 l 21
 453 107 457 202 457 340 c 4
 457 385.48 450 423 421 452 c 4
 397 476 365.5 485 320 485 c 4
 257.871 485 159.607 485 108.667 474.049 c 1
 108.667 362.049 109.5 128 118.5 30 c 9
 73.5 -15 l 17
 83.5 107 92 332.005 92 470.005 c 9
EndSplineSet
Fore
SplineSet
115 470.005 m 9
 70 515 l 17
 145 500 266 500 348 500 c 0
 408.5 500 442 485 467 460 c 0
 499 428 506 386.5 506 324 c 0
 506 212 507 128 516 30 c 9
 471 -15 l 17
 481 107 485 202 485 340 c 0
 485 385.48 478 423 449 452 c 0
 425 476 393.5 485 348 485 c 0
 285.871 485 182.607 485 131.667 474.049 c 1
 131.667 362.049 132.5 128 141.5 30 c 9
 96.5 -15 l 17
 106.5 107 115 332.005 115 470.005 c 9
EndSplineSet
EndChar

StartChar: afii57687
Encoding: 1511 1511 7
Width: 520
Flags: HMW
LayerCount: 2
Back
SplineSet
47 515 m 21
 122 500 224 500 306 500 c 4
 376.633 500 410.725 478.85 433.607 450.429 c 4
 475.817 399.729 465.748 346.989 430.988 272.446 c 4
 383.655 170.94 349.062 94.3877 315.802 1.76562 c 13
 256 -20 l 21
 316.623 86.3438 360.396 170.752 418.718 295.822 c 4
 429.688 319.347 459.694 385.086 417.848 439.429 c 4
 393.325 472.602 358.474 485 306 485 c 4
 237 485 147 485 92 470 c 13
 47 515 l 21
130.658 160 m 4
 130.658 69 130.5 -88 145.5 -168 c 13
 100.5 -213 l 21
 112.236 -130.844 114.5 6 115.5 159 c 4
 115.788 202.999 109 251.5 85.5 276.5 c 13
 130.5 299 l 21
 130.5 260.71 130.5 202.966 130.658 160 c 4
EndSplineSet
Fore
SplineSet
47 515 m 17
 122 500 234 500 316 500 c 0
 386.633 500 420.725 478.85 443.607 450.429 c 0
 485.817 399.729 473 334 440.988 272.446 c 0
 389.118 172.707 350.5 95.5 315.802 6.76562 c 9
 256 -15 l 17
 324.5 90.5 370.396 170.752 428.718 295.822 c 0
 439.688 319.347 469.694 385.086 427.848 439.429 c 0
 403.325 472.602 368.474 485 316 485 c 0
 247 485 147 485 92 470 c 9
 47 515 l 17
130.658 160 m 0
 130.658 69 130.5 -88 145.5 -168 c 9
 100.5 -213 l 17
 112.236 -130.844 114.5 6 115.5 159 c 0
 115.788 202.999 109 251.5 85.5 276.5 c 9
 130.5 299 l 17
 130.5 260.71 130.5 202.966 130.658 160 c 0
EndSplineSet
EndChar

StartChar: afii57680
Encoding: 1504 1504 8
Width: 353
Flags: HMW
LayerCount: 2
Back
SplineSet
80.666 465.334 m 9
 38.8486 521.14 l 17
 71.7108 509.731 104.996 501.396 139.163 494.648 c 0
 147.418 493.017 155.297 491.063 162.929 488.704 c 0
 191.642 479.826 216.842 465.209 239 443.104 c 0
 285.571 396.643 288.849 328.23 291.5 250.004 c 0
 294.5 161.504 297.957 93.541 303 30.0039 c 1
 272.308 -0.688477 l 1
 166.835 -1.9541 105.747 -5.46484 39 -15 c 9
 84 30 l 17
 139.506 19.5928 184.293 15.9727 260.865 14.9971 c 1
 266.571 84.2803 268.096 166.865 269 250.002 c 0
 270 342 259.856 398.481 225 433 c 0
 187.816 469.82 139.038 475.903 80.666 465.334 c 9
EndSplineSet
Fore
SplineSet
39 -15 m 13
 84 30 l 21
 139.506 19.5928 184.293 15.9727 260.865 14.9971 c 5
 266.571 84.2803 268.704 202.34 269.5 275.5 c 0
 270.38 356.458 261.453 406.161 230.779 436.538 c 0
 198.058 468.939 155.133 474.293 103.766 464.992 c 9
 63 520.5 l 17
 92.5762 510.232 122.532 502.73 153.282 496.657 c 0
 160.712 495.189 167.804 493.431 174.672 491.308 c 0
 200.514 483.317 223.193 470.162 243.136 450.268 c 0
 285.05 408.453 288 346.881 290.386 276.478 c 0
 293.086 196.828 297.957 93.541 303 30.0039 c 1
 272.308 -0.688477 l 5
 166.835 -1.9541 105.747 -5.46484 39 -15 c 13
EndSplineSet
EndChar

StartChar: afii57688
Encoding: 1512 1512 9
Width: 510
Flags: HMW
LayerCount: 2
Back
SplineSet
389 312.085 m 2
 390.801 42 l 2
 390.897 27.5176 384.363 15.751 372.784 10.5 c 2
 347.75 -0.851562 l 2
 335.209 -6.53809 321.25 0 317.25 8.5 c 0
 313.636 16.1797 313.216 24.4863 314 39 c 2
 328.5 307.434 l 2
 330.204 335.699 325.251 363.085 310.745 381.2 c 0
 293.689 402.503 260.665 410 228.845 410 c 2
 71.5 410 l 2
 57.5 410 46.667 418.925 43.5 433 c 2
 34.5 473 l 2
 31.0605 488.288 41.5 500 58 500 c 2
 189.5 500 l 2
 240.5 500 285.476 495.732 319 477.5 c 0
 347.5 462 367.396 439.459 376.5 416.5 c 0
 388 387.5 388.757 348.495 389 312.085 c 2
EndSplineSet
Fore
SplineSet
435.5 250 m 0
 438.5 161.5 441.957 93.5368 447 30 c 9
 402 -15 l 17
 410.241 59.7153 411.5 154.5 413 249.998 c 0
 414.158 323.701 397.856 397 363 431.518 c 0
 325.816 468.339 287.191 485 220.824 485 c 0
 198.789 485 141 482.5 92 470 c 9
 47 515 l 17
 112.5 502.5 178.677 500 221 499.996 c 0
 288.072 499.996 341 485 383 443.1 c 0
 429.571 396.639 432.848 328.227 435.5 250 c 0
EndSplineSet
EndChar

StartChar: afii57666
Encoding: 1490 1490 10
Width: 403
Flags: HMW
LayerCount: 2
Back
SplineSet
320.845 179.882 m 17
 202.888 96.0762 126.037 44.7705 33 7 c 9
 93.3232 -13.2734 l 17
 133.117 29.7988 209.562 82.6338 322.716 161.729 c 9
 320.845 179.882 l 17
46.499 515 m 9
 91.4365 470 l 17
 117.093 482.444 141.85 485 180.068 484.917 c 0
 206.353 484.86 225.894 479.062 244.098 465.996 c 0
 276.871 442.473 289.032 406.738 295.365 361.948 c 0
 314.583 226.045 327.919 106.883 335 -15 c 9
 373.322 37.1299 l 17
 350.757 132.078 333.999 239.54 318.402 349.838 c 0
 309.699 411.389 296.983 451.043 260.82 477 c 0
 240.629 491.492 216.853 500.257 183.046 500.157 c 0
 130.151 500 90.7744 503.778 46.499 515 c 9
EndSplineSet
Fore
SplineSet
46.499 515 m 1
 90.7744 503.778 130.151 500.001 183.046 500.157 c 0
 216.853 500.257 240.629 491.492 260.82 477 c 0
 296.983 451.043 309.699 411.389 318.402 349.838 c 0
 333.999 239.54 350.757 132.078 373.322 37.1299 c 1
 335 -15 l 1
 331.612 43.324 326.791 101.025 320.578 160.235 c 1
 208.598 81.9674 132.866 29.5271 93.3232 -13.2734 c 1
 33 7 l 1
 125.457 44.535 201.929 95.4369 318.643 178.318 c 1
 312.225 237.156 304.453 297.68 295.365 361.948 c 0
 289.032 406.738 276.871 442.473 244.098 465.996 c 0
 225.893 479.062 206.353 484.86 180.068 484.917 c 0
 141.85 485 117.093 482.444 91.4365 470 c 1
 46.499 515 l 1
EndSplineSet
EndChar

StartChar: afii57678
Encoding: 1502 1502 11
Width: 533
Flags: HMW
LayerCount: 2
Back
SplineSet
174 -10 m 1
 219 35 l 1
 281 20.5 372.711 15.9756 449.334 15 c 1
 450 85 449.454 171.863 446 255 c 0
 442.178 346.998 429.108 407.392 393.5 443 c 0
 356.5 480 291.602 492.579 235.5 476 c 0
 177.981 459.002 140.519 391.998 128.713 306.998 c 0
 112.799 192.423 100.102 76.1317 102.693 23.4736 c 1
 52 -15 l 1
 67.3393 38.7338 92.8432 187.39 112.448 317.615 c 1
 102.862 384.202 90.7807 444.278 69.582 464.648 c 1
 108.5 515 l 1
 110.032 481.414 116.756 416.769 124 355 c 1
 139.5 423 169.603 475.648 228 497.5 c 0
 290.19 520.771 361.154 504.43 403.198 459.982 c 0
 449.141 411.414 457.411 342.298 464.096 264.854 c 0
 471.658 177.239 480.139 93.541 488.512 30.0039 c 1
 458.667 0 l 1
 353.261 -1.26562 252 0 174 -10 c 1
EndSplineSet
Fore
SplineSet
174 -10 m 1
 219 35 l 1
 281 20.5 382.711 15.9756 459.334 15 c 1
 460 85 459.718 171.863 456.153 255 c 0
 452.209 346.998 438.721 407.392 401.974 443 c 0
 363.789 480 296.814 492.579 238.917 476 c 0
 179.558 459.002 140.896 391.998 128.713 306.998 c 0
 112.29 192.423 100.102 76.1317 102.693 23.4736 c 1
 52 -15 l 1
 67.3393 38.7338 92.8432 187.39 112.448 317.615 c 1
 102.862 384.202 90.7807 444.278 69.582 464.648 c 1
 108.5 515 l 1
 110.032 481.414 116.538 416.769 124 355 c 1
 139.965 423 170.971 475.648 231.12 497.5 c 0
 295.176 520.771 368.269 504.43 411.574 459.982 c 0
 458.895 411.414 467.413 342.298 474.299 264.854 c 0
 482.088 177.239 490.139 93.541 498.512 30.0039 c 1
 468.667 0 l 1
 363.261 -1.26562 252 0 174 -10 c 1
EndSplineSet
EndChar

StartChar: afii57682
Encoding: 1506 1506 12
Width: 521
Flags: HMW
LayerCount: 2
Back
SplineSet
434.515 515 m 1
 471.017 462.87 l 1
 445.136 367.922 424.627 260.46 405.177 150.162 c 0
 394.323 88.6113 380.224 48.9575 343.153 23 c 0
 322.457 8.50811 298.374 -0.256836 264.57 -0.157227 c 0
 211.682 -0.00138379 131.517 0 61.0166 -15 c 1
 106.017 30 l 1
 127.281 23.4906 152.29 19.8061 176.912 17.7273 c 1
 169.479 63.9112 161.24 102.154 150.49 140.15 c 0
 113.47 270.998 88.1289 352.568 43.4805 458.593 c 1
 76.8867 515 l 1
 86.5254 453.251 109.711 357.702 134.727 260.081 c 1
 156.968 182.26 173.976 121.511 203.265 48.2695 c 1
 186.442 16.9984 l 1
 215.175 15.0201 242.636 15.0409 262.126 15.083 c 0
 288.412 15.1398 308.155 20.9378 326.815 34.0039 c 0
 360.411 57.5279 373.819 93.2617 381.717 138.052 c 0
 405.681 273.955 423.178 393.117 434.515 515 c 1
EndSplineSet
Fore
SplineSet
434.515 515 m 1
 471.017 462.87 l 1
 445.136 367.922 424.627 260.46 405.177 150.162 c 0
 394.323 88.6113 380.224 48.9575 343.153 23 c 0
 322.457 8.50811 298.374 -0.256836 264.57 -0.157227 c 0
 211.682 -0.00138379 121.517 0 51.0166 -15 c 1
 96.0166 30 l 1
 117.281 23.4902 152.29 19.8061 176.912 17.7273 c 1
 169.479 63.9112 161.24 102.154 150.49 140.15 c 0
 113.47 270.998 88.1289 352.568 43.4805 458.593 c 1
 76.8867 515 l 1
 86.5254 453.251 109.711 357.702 134.727 260.081 c 1
 156.968 182.26 173.976 121.511 203.265 48.2695 c 1
 186.442 16.9984 l 1
 215.175 15.0201 242.636 15.0409 262.126 15.083 c 0
 288.412 15.1398 308.155 20.9378 326.815 34.0039 c 0
 360.411 57.5279 373.819 93.2617 381.717 138.052 c 0
 405.681 273.955 423.178 393.117 434.515 515 c 1
EndSplineSet
EndChar

StartChar: afii57683
Encoding: 1507 1507 13
Width: 517
Flags: HMW
LayerCount: 2
Back
SplineSet
187 264 m 9
 142 219 l 17
 109 257 93 301 93 353 c 0
 93 410.261 126 462 167 483 c 9
 187 484 l 17
 141 453 114 409 114 355 c 0
 114 303 140 252 187 264 c 9
399 424 m 0
 370 459 317 485 250.824 485 c 0
 175.5 485 141.541 483.373 92 470.005 c 9
 47 515 l 17
 112.5 502.5 170.5 499.996 251 499.996 c 0
 318.072 499.996 371.05 485.05 413 443.1 c 0
 462 394.1 473 327 473 207 c 0
 473 116 468 -75 483 -155 c 9
 438 -200 l 17
 449.736 -117.844 453 52.4679 453 206 c 0
 453 306 442.107 371.975 399 424 c 0
EndSplineSet
Fore
SplineSet
399 424 m 0
 370 459 317 485 250.824 485 c 0
 225.764 485 205.283 484.82 187.283 484.087 c 1
 140.37 452.908 114 408.476 114 355 c 0
 114 303 140 252 187 264 c 1
 142 219 l 1
 109 257 93 301 93 353 c 0
 93 409.288 125.318 461.529 166.736 482.919 c 1
 140.483 480.937 118.465 477.146 92 470.005 c 1
 47 515 l 1
 112.5 502.5 170.5 499.996 251 499.996 c 0
 318.072 499.996 371.05 485.05 413 443.1 c 0
 462 394.1 473 327 473 207 c 0
 473 116 468 -75 483 -155 c 1
 438 -200 l 1
 449.736 -117.844 453 52.4679 453 206 c 0
 453 306 442.107 371.975 399 424 c 0
EndSplineSet
EndChar

StartChar: afii57681
Encoding: 1505 1505 14
Width: 506
Flags: HMW
LayerCount: 2
Back
SplineSet
153.296 484.963 m 5
 154.054 484.987 138.152 499.98 137.104 499.94 c 5
 115 486.809 102 480.211 80 440.627 c 4
 55.0049 395.652 41.5 325.841 41.5 246.249 c 4
 41.5 166.66 53.3574 97.4072 94.8076 50.2529 c 4
 132.188 7.72754 179.294 -7.49707 238.988 -7.49707 c 4
 298.693 -7.49609 345.799 7.72852 383.18 50.2539 c 4
 424.629 97.4082 436.541 166.661 436.541 246.25 c 4
 436.541 325.842 424.628 395.092 383.18 442.25 c 4
 345.799 484.779 298.693 500 238.999 500 c 4
 201.332 500.004 105.5 502.5 40 515 c 13
 85 470 l 21
 134 482.5 219.676 485 238.846 485 c 4
 296.585 485 330.189 468.072 362.539 430.662 c 4
 392.864 395.592 406.039 321.13 406.039 246.238 c 4
 406.039 171.35 396.344 100.952 362.539 61.8184 c 4
 330.206 24.3877 296.585 7.48047 239.141 7.47949 c 4
 181.401 7.47949 147.781 24.3867 115.448 61.8174 c 4
 81.6426 100.951 72 171.349 72 246.237 c 4
 72 321.129 78.5879 395.591 93.75 430.661 c 4
 109.49 467.066 125.824 484.075 153.296 484.963 c 5
EndSplineSet
Fore
SplineSet
145.216 477.701 m 1
 192.772 483.607 246.457 485 261.41 485 c 0
 321.748 485 356.864 468.071 390.67 430.661 c 0
 422.359 395.591 436.127 321.13 436.127 246.238 c 0
 436.127 171.35 425.996 100.951 390.67 61.8174 c 0
 356.882 24.3867 321.748 7.48047 261.719 7.47949 c 0
 201.381 7.47949 166.249 24.3867 132.46 61.8174 c 0
 97.1328 100.952 87.0566 171.35 87.0566 246.238 c 0
 87.0566 321.13 93.9414 395.591 109.785 430.661 c 0
 120.361 454.071 131.195 469.46 145.216 477.701 c 1
119.835 473.957 m 1
 112.733 466.238 105.32 455.882 96.5195 440.627 c 0
 70.5752 395.652 56.5566 325.83 56.5566 246.238 c 0
 56.5566 166.649 68.8643 97.4072 111.89 50.2529 c 0
 150.69 7.72754 199.587 -7.49707 261.549 -7.49707 c 0
 323.523 -7.49609 372.419 7.72754 411.221 50.2529 c 0
 454.244 97.4072 466.609 166.649 466.609 246.238 c 0
 466.609 325.83 454.243 395.092 411.221 442.25 c 0
 372.419 484.779 323.512 499.994 261.549 500 c 0
 222.45 500.004 122.988 502.5 55 515 c 1
 99.9658 470 l 1
 105.904 471.449 113.034 472.765 119.835 473.957 c 1
EndSplineSet
EndChar

StartChar: afii57689
Encoding: 1513 1513 15
Width: 645
Flags: HMW
LayerCount: 2
Back
SplineSet
345.283 330.594 m 0
 343.59 296.261 338.479 274.6 320.88 257 c 0
 307.13 243.25 288.705 235 255.43 235 c 0
 210.33 235 176.13 235 134.88 226.75 c 9
 152.13 259.25 l 17
 182.38 251 209.98 251 247.93 251 c 0
 272.955 251 290.28 255.95 303.48 269.15 c 0
 319.43 285.1 324.973 305.498 326.203 330.482 c 0
 328.664 405.769 329.282 472.219 325.307 515 c 9
 368.038 467.841 l 17
 360.356 435.694 349.532 385.413 345.283 330.594 c 0
528.835 160.803 m 0
 523.982 115.581 514.307 77 485.307 48 c 0
 461.307 24 429.807 15 384.307 15 c 0
 315.307 15 259.257 15 179.307 15 c 17
 155.542 92.8477 130.655 302.404 120.581 392.845 c 0
 115.667 435.529 111.046 477.017 106.807 515.071 c 9
 50 478.558 l 17
 94.9473 472.496 102.638 417.007 105.627 390.173 c 0
 120.516 246.223 137.501 85.3271 135.597 -15 c 1
 199.807 3 302.307 0 384.307 0 c 0
 444.807 0 478.307 15 503.307 40 c 0
 535.307 72 544.753 112.325 551.43 174.468 c 0
 562.34 271.635 576.676 403.752 595.245 465.452 c 9
 555.307 515 l 17
 557.885 441.214 542.318 298.894 528.835 160.803 c 0
EndSplineSet
Fore
SplineSet
528.835 160.803 m 0
 542.318 298.894 557.885 441.214 555.307 515 c 1
 595.245 465.452 l 1
 576.676 403.752 562.34 271.635 551.43 174.468 c 0
 544.456 112.358 535.307 72 503.307 40 c 0
 478.307 15 444.807 0 384.307 0 c 0
 302.307 0 199.807 3 135.597 -15 c 1
 137.501 85.3271 120.516 246.223 105.627 390.173 c 4
 102.638 417.007 94.9473 472.496 50 478.558 c 5
 106.807 515.071 l 5
 111.046 477.017 115.667 435.529 120.581 392.845 c 4
 124.913 355.218 131.695 296.944 139.851 236.116 c 1
 152.13 259.25 l 1
 182.38 251 209.98 251 247.93 251 c 0
 272.955 251 290.28 255.95 303.48 269.15 c 0
 319.43 285.1 324.973 305.498 326.203 330.482 c 0
 328.664 405.769 329.282 472.219 325.307 515 c 1
 368.038 467.841 l 1
 360.356 435.694 349.532 385.413 345.283 330.594 c 0
 343.59 296.261 338.479 274.6 320.88 257 c 0
 307.13 243.25 288.705 235 255.43 235 c 0
 212.563 235 179.543 235 140.957 227.916 c 1
 152.195 145.061 165.877 58.9933 179.307 15 c 1
 259.257 15 315.307 15 384.307 15 c 0
 429.807 15 461.307 24 485.307 48 c 0
 514.307 77 523.982 115.581 528.835 160.803 c 0
EndSplineSet
EndChar

StartChar: afii57672
Encoding: 1496 1496 16
Width: 554
Flags: HMW
LayerCount: 2
Back
SplineSet
259.777 409.16 m 21
 249.423 456.55 303.001 487.5 355 487.5 c 4
 393.5 487.5 428.456 467.246 452.5 433.5 c 4
 481 393.5 480.341 323.71 471.29 249.998 c 0
 462.239 176.289 432.588 107 389.003 68.4824 c 0
 347.315 31.6416 306 15 240.26 15 c 2
 240.26 15 207.294 15 174.794 15 c 1
 143.548 122.5 124.994 303.104 115.478 393.22 c 0
 110.825 435.745 106.459 477.083 102.454 515 c 9
 45.3877 476.872 l 17
 90.3232 472.103 97.6738 416.856 100.496 390.119 c 0
 115.35 237.918 132.332 67.9893 129.246 -15 c 1
 162.27 0 196.271 0 238.594 0 c 0
 305.666 0 360.436 15 407.58 56.8965 c 0
 459.857 103.354 491.619 171.583 501.247 249.996 c 0
 510.875 328.412 504.198 386.47 471 433.5 c 4
 441 476 396.5 500 340 500 c 4
 286 500 246 485 216.373 455.701 c 13
 259.777 409.16 l 21
EndSplineSet
Fore
SplineSet
259.777 416.16 m 9
 216.373 462.701 l 17
 246 492 286 507 340 507 c 0
 396.5 507 441 483 471 440.5 c 0
 504.198 393.47 510.875 331.412 501.247 252.996 c 0
 491.619 174.583 459.857 103.354 407.58 56.8965 c 0
 360.436 15 305.666 0 238.594 0 c 0
 196.271 0 166.634 0 133.872 -15 c 1
 135.509 67.9893 115.561 237.918 98.0498 390.119 c 0
 94.7617 416.856 86.4463 472.103 41.4277 476.872 c 9
 97.8281 515 l 17
 102.495 477.083 107.583 435.745 112.979 393.22 c 0
 124.067 303.104 145.773 122.5 178.896 15 c 1
 211.396 15 240.26 15 240.26 15 c 2
 306 15 347.315 31.6416 389.003 68.4824 c 0
 432.588 107 462.239 179.289 471.29 252.998 c 0
 480.341 326.71 481 400.5 452.5 440.5 c 0
 428.456 474.246 393.5 494.5 355 494.5 c 0
 303.001 494.5 249.423 463.55 259.777 416.16 c 9
EndSplineSet
EndChar

StartChar: afii57686
Encoding: 1510 1510 17
Width: 510
Flags: HMW
LayerCount: 2
Back
SplineSet
391.415 96.082 m 0
 406.467 78.5583 423.3 62.5996 414.5 36.1992 c 0
 410.295 23.5859 399.7 15 382.5 15 c 0
 317.7 15 147 15 92 30 c 9
 47 -15 l 17
 122 0 315.56 0 391 0 c 0
 414.369 0 433.572 10.8223 440.199 29.5195 c 0
 451.68 61.9092 432.378 80.3184 409.179 107.646 c 0
 312.35 221.713 137.893 415.21 67 515 c 13
 61.5381 451.596 l 21
 137 394 230 284 391.415 96.082 c 0
415.797 393.841 m 0
 423.172 436.17 430.352 477.292 437 515 c 9
 372.21 495.962 l 17
 413.632 477.488 405.729 422.015 400.695 395.488 c 0
 384 307.5 368.5 233.5 342.87 172.498 c 9
 395 209 l 17
 394 253.5 404.5 329 415.797 393.841 c 0
EndSplineSet
Fore
SplineSet
424.389 390.823 m 0
 410.567 326.473 397.125 251.44 396.387 206.936 c 1
 349.965 177.064 l 1
 409.179 107.646 l 2
 432.377 80.3178 451.68 61.9093 440.199 29.5195 c 0
 433.572 10.8224 414.369 0 391 0 c 0
 315.56 0 122 0 47 -15 c 1
 92 30 l 1
 147 15 317.7 15 382.5 15 c 0
 399.7 15 410.295 23.5859 414.5 36.1992 c 0
 423.3 62.5996 406.467 78.5583 391.415 96.082 c 0
 230 284 137 401 61.5381 458.596 c 1
 67 522 l 1
 124.397 441.207 249.681 294.399 346.69 180.895 c 1
 372.566 239.26 390.172 309.823 409.362 393.059 c 0
 415.428 419.369 425.493 474.49 384.824 494.568 c 1
 450.309 511.062 l 1
 442.192 473.642 433.412 432.832 424.389 390.823 c 0
EndSplineSet
EndChar

StartChar: afii57667
Encoding: 1491 1491 18
Width: 510
Flags: HMW
LayerCount: 2
Back
SplineSet
460 500 m 9
 460 487 l 17
 414 487 383.688 449.202 383.655 388.304 c 10
 383.5 172.5 l 18
 383.476 138.499 396 114.5 424 97 c 9
 375 0 l 25
 367.5 0 l 25
 367.5 484 l 25
 190.563 483.88 l 18
 156 483.856 129 468.5 112.5 444 c 9
 30 492 l 25
 30 500 l 17
 460 500 l 9
EndSplineSet
Fore
SplineSet
32 515 m 17
 137 500 294 500 470 500 c 9
 440 470 l 17
 420.637 482.323 394 485 367 485 c 1
 367 335 372 156 382 30 c 9
 337 -15 l 17
 352 121 346 320 346 485 c 1
 255 485 157 485 77 470 c 9
 32 515 l 17
EndSplineSet
EndChar

StartChar: afii57668
Encoding: 1492 1492 19
Width: 530
Flags: HMW
LayerCount: 2
Back
SplineSet
64 -15 m 9
 109 30 l 17
 95.2783 109.937 91.7412 211.553 111 305 c 9
 69 263 l 17
 88 168 76.2646 68.9199 64 -15 c 9
47 515 m 9
 92 470 l 17
 147 485 217 485 286 485 c 0
 322.513 485 356 476 380 452 c 0
 409 423 416 385.48 416 340 c 0
 416 202 412 107 402 -15 c 9
 447 30 l 17
 438 128 437 212 437 324 c 0
 437 386.5 430 428 398 460 c 0
 373 485 339.5 500 291 500 c 0
 209 500 122 500 47 515 c 9
EndSplineSet
Fore
SplineSet
77 -15 m 17
 89.2646 68.9199 101 168 82 263 c 9
 124 305 l 17
 104.741 211.553 108.278 109.937 122 30 c 9
 77 -15 l 17
60 515 m 17
 135 500 230 500 312 500 c 0
 372.5 500 406 485 431 460 c 0
 463 428 470 386.5 470 324 c 0
 470 212 471 128 480 30 c 9
 435 -15 l 17
 445 107 449 202 449 340 c 0
 449 385.48 442 423 413 452 c 0
 389 476 357.5 485 312 485 c 0
 243 485 160 485 105 470 c 9
 60 515 l 17
EndSplineSet
EndChar

StartChar: afii57679
Encoding: 1503 1503 20
Width: 225
Flags: HMW
LayerCount: 2
Back
SplineSet
116.5 327.5 m 22
 116.5 370.206 101 394 70 410 c 13
 122.5 500 l 29
 130 500 l 29
 129.845 -27.5 l 22
 129.703 -61.5 142.345 -85.5 170.345 -103 c 13
 124 -200 l 29
 116.5 -200 l 29
 116.5 327.5 l 22
EndSplineSet
Fore
SplineSet
130.658 392 m 0
 130.658 301 130.5 -73 145.5 -153 c 13
 100.5 -198 l 21
 112.236 -115.844 114.29 237.473 115.5 391 c 0
 115.5 418 114 474 70 485 c 9
 130.5 515 l 17
 130.5 476.71 130.5 434.966 130.658 392 c 0
EndSplineSet
EndChar

StartChar: afii57665
Encoding: 1489 1489 21
Width: 520
Flags: HMW
LayerCount: 2
Back
SplineSet
386.5 -0.12207 m 1
 253.021 -0.605469 115.907 -3.01367 32 -15 c 9
 77 30 l 17
 157 15 296 15 387 15 c 1
 414 15 461.5 18.5 490 30 c 9
 460 0 l 17
 424.645 0 420.055 0 386.5 -0.12207 c 1
47 515 m 17
 122 500 166 500 248 500 c 0
 308.5 500 342 485 367 460 c 0
 399 428 406 386.5 406 324 c 0
 406 212 403 138 412 40 c 9
 377 5 l 17
 387 127 385 202 385 340 c 0
 385 385.48 378 423 349 452 c 0
 325 476 293.5 485 248 485 c 0
 179 485 147 485 92 470 c 9
 47 515 l 17
EndSplineSet
Fore
SplineSet
47 515 m 1
 122 500 166 500 248 500 c 0
 308.5 500 342 485 367 460 c 0
 399 428 406 386.5 406 324 c 0
 406 212 403 138 412 40 c 1
 387 15 l 1
 414 15 461.5 18.5 490 30 c 1
 460 0 l 1
 424.645 0 420.055 -0.000274692 386.5 -0.12207 c 0
 253.021 -0.606562 116 0 32 -10 c 1
 77 35 l 1
 154.35 20.4971 286.854 15.0165 377.801 15.0006 c 1
 386.891 131.19 385 205.81 385 340 c 0
 385 385.48 378 423 349 452 c 0
 325 476 293.5 485 248 485 c 0
 179 485 147 485 92 470 c 1
 47 515 l 1
EndSplineSet
EndChar

StartChar: afii57674
Encoding: 1498 1498 22
Width: 517
Flags: HMW
LayerCount: 2
Back
SplineSet
399 424 m 0
 370 459 317 485 250.824 485 c 0
 175.5 485 141.541 483.373 92 470.005 c 9
 47 515 l 17
 112.5 502.5 170.5 499.996 251 499.996 c 0
 318.072 499.996 371.05 485.05 413 443.1 c 0
 462 394.1 473 327 473 207 c 0
 473 116 468 -75 483 -155 c 9
 438 -200 l 17
 449.736 -117.844 453 52.4679 453 206 c 0
 453 306 442.107 371.975 399 424 c 0
EndSplineSet
Fore
SplineSet
393.5 424 m 0
 364.5 459 312 485 245.824 485 c 0
 170.5 485 141.541 483.373 92 470.005 c 9
 47 515 l 17
 112.5 502.5 165.5 499.996 246 499.996 c 0
 313.072 499.996 361.05 485.05 403 443.1 c 0
 452 394.1 463 327 463 207 c 0
 463 116 458 -75 473 -155 c 9
 428 -200 l 17
 439.736 -117.844 443 52.4678 443 206 c 0
 443 306 436.607 371.975 393.5 424 c 0
EndSplineSet
EndChar

StartChar: afii57673
Encoding: 1497 1497 23
Width: 217
Flags: HMW
LayerCount: 2
Back
SplineSet
107.643 381 m 0
 107.643 331.929 100.479 288.516 92.6582 235 c 9
 137.658 280 l 17
 126.158 315 122.522 350.305 122.158 386.5 c 0
 122 429.466 124.158 475 130.5 515 c 9
 70 485 l 17
 114 474 107.643 408 107.643 381 c 0
EndSplineSet
Fore
SplineSet
107.643 381 m 0
 107.643 408 109.5 471.5 65.5 482.5 c 9
 130.5 515 l 17
 124.158 475 122 429.466 122.158 386.5 c 0
 122.522 350.305 126.158 315 137.658 280 c 9
 92.6582 235 l 17
 100.479 288.516 107.643 331.929 107.643 381 c 0
EndSplineSet
EndChar

StartChar: afii57676
Encoding: 1500 1500 24
Width: 497
Flags: HMW
LayerCount: 2
Back
SplineSet
90.5908 515 m 1
 93.3906 570 105.391 634.8 115.79 696 c 9
 50 666 l 17
 92.0605 655 83.6865 599 78.9258 572 c 0
 72.6143 537.95 66.2979 503.794 59.7891 470 c 1
 114.789 485 224.388 485 293.388 485 c 0
 345.861 485 380.713 472.602 405.235 439.429 c 0
 447.082 385.086 418.199 320.24 395.012 280.438 c 0
 326.888 163.5 275.048 80.6553 205.388 -20 c 9
 266.858 -3.5293 l 17
 308.064 85.8418 351.085 158.023 405.198 256.082 c 0
 452.888 342.5 463.205 399.729 420.995 450.429 c 0
 398.112 478.85 364.021 500 293.388 500 c 0
 211.388 500 165.591 500 90.5908 515 c 1
EndSplineSet
Fore
SplineSet
293.388 500 m 0
 364.021 500 398.112 478.85 420.995 450.429 c 0
 463.205 399.729 452.888 342.5 405.198 256.082 c 0
 351.085 158.023 308.064 85.8418 266.858 -3.5293 c 9
 205.388 -20 l 17
 275.048 80.6553 326.888 163.5 395.012 280.438 c 0
 418.199 320.24 447.082 385.086 405.235 439.429 c 0
 380.713 472.602 345.861 485 293.388 485 c 0
 224.388 485 109.789 485 54.7891 470 c 1
 67.5 552.5 69.5 624 50.7891 696 c 9
 116.579 666 l 17
 74.5186 655 78.583 607.41 78 580 c 0
 77.5 556.5 78.9092 528.5 85 505.5 c 1
 155.5 500 211.388 500 293.388 500 c 0
EndSplineSet
EndChar

StartChar: afii57685
Encoding: 1509 1509 25
Width: 502
Flags: HMW
LayerCount: 2
Back
SplineSet
201 110 m 21
 252.059 136.496 284.313 151.389 338.5 175.872 c 4
 408.5 207.5 420.366 261.467 427.737 321.515 c 0
 430.401 343.929 435.098 376.045 437.167 392.897 c 0
 442.247 435.562 447.334 476.995 452 515 c 9
 399.709 491.195 l 17
 429.416 462.36 422.214 394.844 413.863 331.586 c 0
 408.318 286.425 399.5 220.326 330.5 192 c 4
 288.435 174.731 259.546 168.351 219.75 155.809 c 13
 201 110 l 21
306 -199 m 9
 332.202 -141.005 l 17
 271 -33 201 142 130.728 332 c 0
 103.02 406.916 78.38 475.314 67 515 c 9
 40.7979 457.006 l 17
 68 441 95.5752 378.05 121.983 310 c 0
 193 127 264 -65 306 -199 c 9
EndSplineSet
Fore
SplineSet
268.596 -210.449 m 1
 233.611 -74.4482 172.678 120.979 111.262 307.421 c 4
 88.4235 376.751 64.1553 441.048 37.8213 458.445 c 5
 67 515 l 5
 76.3037 474.776 97.3584 405.191 121.138 328.938 c 4
 147.763 243.56 174.486 161.105 200.809 86.0777 c 1
 208.787 121.809 l 1
 245.909 140.858 270.316 149.501 308.882 173.593 c 0
 372.141 213.11 398.548 269.414 408.493 331.2 c 0
 418.632 394.196 428.431 461.378 399.709 491.195 c 1
 452.771 513.229 l 1
 446.83 475.403 440.354 434.164 433.844 391.694 c 0
 431.209 374.921 425.522 342.967 422.021 320.669 c 0
 412.637 260.902 383.168 201.978 319.478 159.038 c 0
 272.259 127.204 246.145 109.714 203.718 77.8118 c 1
 236.012 -13.6639 267.673 -93.6823 297.774 -153.894 c 1
 268.596 -210.449 l 1
EndSplineSet
EndChar

StartChar: afii57677
Encoding: 1501 1501 26
Width: 547
Flags: HMW
LayerCount: 2
Back
SplineSet
115 10.5 m 1
 134.5 30 l 1
 214.5 15 338.5 15 455 15 c 1
 461 88.5 461.5 154.5 463 249.998 c 0
 464.158 323.701 447.856 397 413 431.518 c 0
 375.816 468.339 337.191 485 270.824 485 c 0
 248.789 485 144 482.5 95 470 c 9
 50 515 l 17
 115.5 502.5 228.677 500 271 499.996 c 0
 338.072 499.996 391 485 433 443.1 c 0
 479.571 396.639 482.848 328.227 485.5 250 c 0
 488.5 161.5 491.957 93.5371 497 30 c 1
 467.5 0 l 1
 294 0 167.507 -4.14648 91.5303 -15 c 1
 95.4385 84.668 93.7976 218.1 94.1992 329 c 0
 94.1992 397.713 133.8 459.8 183 485 c 9
 203 485 l 17
 147.8 447.8 115.4 395 115.4 330.199 c 0
 115.4 250.862 110.229 110.338 115 10.5 c 1
EndSplineSet
Fore
SplineSet
115 10.5 m 1
 134.5 30 l 1
 214.5 15 338.5 15 455 15 c 1
 461 88.5 461.5 154.5 463 249.998 c 0
 464.158 323.701 447.856 397 413 431.518 c 4
 375.816 468.339 337.191 485 270.824 485 c 0
 261.278 485 236.2 484.531 206.856 482.983 c 1
 179.242 468.959 155.105 445.098 140.914 422 c 0
 124.371 395.072 115.4 353.5 115.4 307.5 c 0
 115.4 228.163 110.229 110.338 115 10.5 c 1
181.876 481.445 m 1
 150.022 479.184 116.926 475.593 95 470 c 1
 50 515 l 1
 115.5 502.5 228.677 500 271 499.996 c 0
 338.072 499.99 391 485 433 443.1 c 0
 479.571 396.639 482.848 328.225 485.5 249.998 c 0
 488.5 161.498 491.957 93.5371 497 30 c 1
 467.5 0 l 1
 294 0 167.507 -4.14648 91.5303 -15 c 1
 95.4385 84.668 94.1992 195.401 94.1992 306.301 c 0
 94.1992 362 106.507 403.555 125.925 432.5 c 0
 139.436 452.641 160.313 471.668 181.876 481.445 c 1
EndSplineSet
EndChar

StartChar: afii57690
Encoding: 1514 1514 27
Width: 572
Flags: HMW
LayerCount: 2
Back
SplineSet
344 500 m 0
 404.5 500 438 485 463 460 c 0
 495 428 502 386.5 502 324 c 0
 502 212 503 128 512 30 c 1
 467 -15 l 1
 477 107 481 202 481 340 c 0
 481 385.48 474 423 445 452 c 0
 421 476 389.5 485 344 485 c 0
 297.733 485 229.437 480.478 172.874 480.478 c 1
 173.702 425.44 174.335 324.612 174.335 240.167 c 0
 174.335 190.791 175.82 142.208 177.946 101 c 0
 179.372 73.3506 181.086 49.0205 182.833 30 c 1
 152.666 -0.166992 l 1
 91.2119 -2.32812 51.9551 -4.00684 10 -10 c 1
 55 35 l 1
 83.5508 29.6465 113.333 24.666 149.997 24.667 c 1
 151.192 41.9131 152.514 60.8438 153.794 81 c 0
 157.029 131.961 160 190.762 160 250 c 0
 160 317.962 158.333 394.667 144.335 453.332 c 1
 163.128 479.642 l 1
 139.267 477.448 117.976 474.357 102 470 c 1
 57 515 l 1
 132 500 262 500 344 500 c 0
EndSplineSet
Fore
SplineSet
354 500 m 0
 414.5 500 448 485 473 460 c 0
 505 428 512 386.5 512 324 c 0
 512 212 513 128 522 30 c 1
 477 -15 l 1
 487 107 491 202 491 340 c 0
 491 385.48 484 423 455 452 c 0
 431 476 399.5 485 354 485 c 0
 307.733 485 233.563 481 177 481 c 1
 173.5 426.5 174.335 324.612 174.335 240.167 c 0
 174.335 190.791 175.82 142.208 177.946 101 c 0
 179.372 73.3506 181.086 49.0205 182.833 30 c 1
 152.666 -0.166992 l 1
 91.2119 -2.32812 51.9551 -4.00684 10 -10 c 1
 55 35 l 1
 83.5508 29.6465 113.333 24.666 149.997 24.667 c 1
 151.192 41.9131 152.514 60.8438 153.794 81 c 0
 157.029 131.961 160 190.762 160 250 c 0
 160 317.962 155.5 387 143.126 446.522 c 1
 167.254 480.164 l 1
 143.393 477.97 117.976 474.357 102 470 c 1
 57 515 l 1
 132 500 272 500 354 500 c 0
EndSplineSet
EndChar

StartChar: zero
Encoding: 48 48 28
Width: 484
Flags: HMW
LayerCount: 2
Back
SplineSet
240.012 -7.49707 m 0
 180.307 -7.49609 133.2 7.95605 95.8193 51.1152 c 0
 54.3701 98.9727 42.458 169.259 42.458 250.035 c 0
 42.458 330.815 54.3711 401.099 95.8193 448.959 c 0
 133.2 492.123 180.307 507.571 240 507.571 c 0
 298.693 507.571 345.799 492.123 383.18 448.959 c 0
 424.628 401.099 436.541 330.815 436.541 250.035 c 0
 436.541 169.259 424.629 98.9727 383.18 51.1152 c 0
 345.799 7.95605 298.693 -7.49609 240.012 -7.49707 c 0
239.858 7.62891 m 0
 295.585 7.62988 330.206 24.792 362.539 62.7861 c 0
 396.344 102.508 406.039 173.967 406.039 249.98 c 0
 406.039 326 392.864 401.583 362.539 437.181 c 0
 330.189 475.154 296.585 492.337 240.153 492.337 c 0
 206.88 492.337 185.5 486.754 164 469.498 c 0
 145.801 454.892 132.5 436.001 132 393.369 c 9
 102 432.956 l 17
 79 378.144 72.96 316.646 72.96 249.98 c 0
 72.96 173.967 82.6553 102.508 116.46 62.7861 c 0
 148.793 24.792 182.414 7.62988 239.858 7.62891 c 0
EndSplineSet
Fore
SplineSet
242.538 -7.49707 m 0
 184.349 -7.49609 138.438 8.03125 102.007 51.3994 c 0
 61.6094 99.4893 50 170.116 50 251.284 c 0
 50 332.456 61.6104 403.08 102.007 451.173 c 0
 138.438 494.546 184.349 510.069 242.526 510.069 c 0
 299.729 510.069 345.64 494.546 382.071 451.173 c 0
 422.467 403.08 434.077 332.456 434.077 251.284 c 0
 434.077 170.116 422.468 99.4893 382.071 51.3994 c 0
 345.64 8.03125 299.729 -7.49609 242.538 -7.49707 c 0
242.387 7.62891 m 0
 296.439 7.62988 330.021 24.8809 361.382 63.0703 c 0
 394.172 102.996 403.575 174.823 403.575 251.229 c 0
 403.575 327.64 390.796 403.612 361.382 439.393 c 0
 330.004 477.562 297.409 494.833 242.673 494.833 c 0
 210.399 494.833 189.661 489.222 168.808 471.877 c 0
 151.155 457.195 138.253 438.207 137.769 395.355 c 9
 108.67 435.146 l 17
 86.3604 380.052 80.502 318.238 80.502 251.229 c 0
 80.502 174.823 89.9062 102.996 122.695 63.0703 c 0
 154.057 24.8809 186.668 7.62988 242.387 7.62891 c 0
EndSplineSet
EndChar

StartChar: one
Encoding: 49 49 29
Width: 295
Flags: HMW
LayerCount: 2
Back
SplineSet
180.658 392 m 0
 180.495 434.966 180.5 476.71 180.5 515 c 9
 0 424.5 l 17
 6 418.5 l 1
 150.5 476 166.709 464.99 165.5 391 c 0
 163 238 161.5 121.5 145.5 -15 c 9
 190.5 30 l 17
 180.5 111 181 302 180.658 392 c 0
EndSplineSet
Fore
SplineSet
185.658 392 m 4
 186 302 185.5 111 195.5 30 c 9
 150.5 -15 l 17
 166.5 121.5 168 238 170.5 391 c 4
 171.709 464.99 155.5 476 11 418.5 c 5
 5 424.5 l 13
 185.5 515 l 21
 185.5 476.71 185.495 434.966 185.658 392 c 4
EndSplineSet
EndChar

StartChar: two
Encoding: 50 50 30
Width: 473
Flags: HMW
LayerCount: 2
Back
SplineSet
421.5 38.2305 m 9
 376.5 -6.76953 l 17
 317 8.23047 268.386 8.23047 192.5 8.23047 c 0
 157 8.23047 99 6.23047 53.5 -6.76953 c 1
 61.5 38.2305 79.7734 78.8457 116 120.73 c 24
 159.372 170.876 195.5 189.23 252 222.73 c 0
 297.873 249.929 326.5 269.73 358.5 305.23 c 0
 379.208 328.203 391 360.524 391 387.705 c 0
 391 416.775 377.669 442.87 361.5 458.085 c 0
 338.5 479.73 305.5 492.255 266.5 492.255 c 0
 224 492.255 198.667 491.916 167.854 474.916 c 0
 136.486 457.611 114.889 422.751 130.636 389.722 c 9
 77.499 424.737 l 17
 95.8428 455.02 122.873 476.431 161.667 492.029 c 0
 190 503.42 218.672 507.5 247 507.5 c 0
 297.092 507.5 336 499.69 372.5 469.25 c 0
 396.758 449.019 413.649 416.21 413.649 377.96 c 0
 413.649 349.298 406.236 320.084 389 294.23 c 0
 357 246.23 313.5 224.23 276 200.73 c 0
 190.94 147.426 110.5 109.23 81 23.2305 c 1
 213 23.2305 335.795 22.9258 421.5 38.2305 c 9
EndSplineSet
Fore
SplineSet
423 38.2305 m 9
 378 -6.76953 l 17
 318.5 8.23047 269.886 8.23047 194 8.23047 c 0
 158.5 8.23047 100.5 6.2959 55 -6.76953 c 1
 63 38.4551 79.9814 79.0303 115.5 121.368 c 24
 157.591 171.539 192 190.211 248.5 223.878 c 0
 294.373 251.212 330.5 273.896 354 306.79 c 0
 372.038 332.039 382.5 362.361 382.5 389.678 c 0
 382.5 418.894 371.522 442.258 353 460.409 c 0
 329.5 483.438 297 494.75 258 494.75 c 0
 215.5 494.75 190.167 494.409 159.354 477.324 c 0
 127.986 459.934 106.389 424.898 122.136 391.704 c 9
 68.999 426.809 l 17
 87.3428 457.248 114.373 478.77 153.167 494.448 c 0
 181.5 505.897 210.172 509.999 238.5 509.999 c 0
 288.592 509.999 328.154 503.088 364.5 472.306 c 0
 391.5 449.438 405.149 418.237 405.149 379.79 c 0
 405.149 350.98 398.208 322.577 382.5 295.629 c 0
 356 250.165 310 225.268 272.5 201.646 c 0
 187.44 148.066 112 109.674 82.5 23.2305 c 1
 214.5 23.2305 337.295 22.9258 423 38.2305 c 9
EndSplineSet
EndChar

StartChar: three
Encoding: 51 51 31
Width: 467
Flags: HMW
LayerCount: 2
Back
SplineSet
113.136 391.348 m 9
 60 426.524 l 17
 78.3438 456.388 108.645 478.661 141.5 492.071 c 0
 169.5 503.5 197.5 507.495 231.346 507.495 c 0
 285 507.495 327.434 496.208 362.463 467.17 c 0
 388 446 402.838 417.783 402.838 380.491 c 16
 402.838 344.769 388.819 317.939 363.911 295.784 c 0
 344.902 278.876 319 265.562 286.188 259.689 c 1
 320.75 253.288 351.502 239.63 371.512 221.353 c 0
 397.731 197.403 412.487 168.402 412.487 129.785 c 8
 412.487 89.8486 397.5 61 370.987 36.1709 c 0
 338.485 5.73249 289.705 -7.5 230 -7.5 c 0
 195 -7.5 163.071 -3.05957 134.167 7.97852 c 0
 97 22.1729 68.3438 44.4297 50 74.793 c 9
 103.136 110.563 l 17
 87.3896 77.4375 109.051 42.5947 140.354 25.1152 c 0
 167.833 9.76953 199 6.73535 230.154 6.73535 c 0
 280 6.73535 320.5 18 349.347 47.4727 c 0
 369.644 68.2103 382.617 96.2881 382.617 131.553 c 24
 382.617 166.471 371.02 195.131 349.347 214.675 c 0
 324.298 237.263 297.333 248.687 260.834 253.63 c 1
 246.625 251.756 231.624 251.116 219.5 251.116 c 0
 180.37 251.116 180.37 267.21 219.5 267.21 c 0
 233.726 267.21 246.604 266.322 259.881 264.534 c 1
 293.967 269.365 320.349 281.366 342.862 301.134 c 0
 363.452 319.214 374.469 345.606 374.469 378.03 c 24
 374.469 410.802 363.5 436.5 342.862 455.888 c 0
 316.076 481.051 277.5 493.498 231.5 493.498 c 0
 202 493.498 176 489 150.354 475.389 c 0
 118.807 458.646 97.3887 423.929 113.136 391.348 c 9
EndSplineSet
Fore
SplineSet
113.136 393.32 m 9
 60 428.63 l 17
 78.3438 458.638 108.646 481.019 141.5 494.494 c 0
 169.5 505.979 197.5 509.993 231.346 509.993 c 0
 285 509.993 327.434 498.651 362.463 469.472 c 0
 388 448.199 402.838 419.812 402.838 382.373 c 16
 402.838 346.478 388.819 319.518 363.911 297.255 c 0
 344.902 280.265 319 266.887 286.188 260.985 c 1
 320.75 254.553 351.502 240.828 371.512 222.463 c 0
 397.731 198.397 412.487 169.256 412.487 130.451 c 8
 412.487 90.3525 397.5 61.332 370.987 36.3828 c 0
 338.485 5.79688 289.705 -7.5 230 -7.5 c 0
 195 -7.5 163.071 -3.03809 134.167 8.05371 c 0
 97 22.3164 68.3438 44.6816 50 75.1924 c 9
 103.136 111.096 l 17
 87.3896 77.7998 109.051 42.7783 140.354 25.21 c 0
 167.833 9.78516 199 6.73535 230.154 6.73535 c 0
 280 6.73535 320.5 18.0576 349.347 47.6816 c 0
 369.644 68.5254 382.617 96.7715 382.617 132.193 c 24
 382.617 167.266 371.02 196.098 349.347 215.741 c 0
 324.298 238.445 297.333 249.928 260.834 254.896 c 1
 246.625 253.013 231.624 252.37 219.5 252.37 c 0
 180.37 252.37 180.37 268.546 219.5 268.546 c 0
 233.726 268.546 246.604 267.654 259.881 265.856 c 1
 293.967 270.713 320.349 282.775 342.862 302.645 c 0
 363.452 320.816 374.469 347.368 374.469 379.935 c 24
 374.469 412.85 363.5 438.705 342.862 458.191 c 0
 316.076 483.484 277.5 495.995 231.5 495.995 c 0
 202 495.995 176 491.474 150.354 477.793 c 0
 118.808 460.965 97.3887 426.069 113.136 393.32 c 9
EndSplineSet
EndChar

StartChar: four
Encoding: 52 52 32
Width: 477
Flags: HMW
LayerCount: 2
Back
SplineSet
350.402 304.089 m 0
 350.402 280.5 350 110 365 30 c 9
 320 -15 l 17
 331.736 67.1562 334.178 253 334.178 302.978 c 0
 334.178 337.033 335.5 359 329.5 377 c 9
 359.5 407 l 17
 350 368.5 350.402 331.089 350.402 304.089 c 0
100.333 190.001 m 1
 180.5 178 246 175.5 337 175.5 c 0
 364 175.5 411.5 179 440 190.5 c 9
 410 160.5 l 17
 374.645 160.5 370.055 160.5 336.5 160.378 c 0
 234 160.378 139.5 157 52.5 145.5 c 1
 102.818 221.323 239.886 427.437 271.623 502.388 c 9
 334 515 l 17
 278.794 453.036 186.233 317.254 100.333 190.001 c 1
EndSplineSet
Fore
SplineSet
342.902 304.089 m 0
 342.902 291.427 342.786 236.435 344.999 175.831 c 1
 372.232 176.936 408.887 180.972 432.5 190.5 c 1
 402.5 160.5 l 1
 373.962 160.5 365.469 160.436 345.608 160.436 c 1
 347.65 112.705 351.229 63.4443 357.5 30 c 1
 312.5 -15 l 1
 318.502 27.0146 322.073 96.1475 324.13 160.358 c 1
 223.505 159.908 130.62 156.818 45 145.5 c 1
 95.3184 221.323 232.386 427.438 264.123 502.388 c 1
 326.5 515 l 1
 271.294 453.036 178.733 317.254 92.833 190.001 c 1
 171.551 178.217 236.127 175.593 324.59 175.503 c 1
 326.188 230.906 326.678 280.583 326.678 302.978 c 0
 326.678 337.033 328 359 322 377 c 1
 352 407 l 1
 342.5 368.5 342.902 331.089 342.902 304.089 c 0
EndSplineSet
EndChar

StartChar: five
Encoding: 53 53 33
Width: 443
Flags: HMW
LayerCount: 2
Back
SplineSet
86.4248 312.493 m 5
 120.237 340.287 161.068 350.746 210.554 350.747 c 4
 270.259 350.746 323.66 336.275 361.041 293.75 c 4
 388.282 262.76 403.541 224.559 403.541 175.583 c 28
 403.541 126.546 388.168 88.1074 361.041 57.2471 c 4
 323.66 14.7217 270.259 0.250977 210.554 0.25 c 4
 152.001 0.0771484 92.252 19.4199 58.541 58.75 c 4
 51.541 66.917 45.208 75.583 38.541 88.25 c 13
 73.541 130.25 l 21
 76.541 99.75 86.915 76.4834 101.041 58.75 c 4
 124.541 29.25 157.041 15.2266 210.707 15.2266 c 4
 268.151 15.2266 308.067 31.3809 340.4 68.8115 c 4
 361.95 93.7588 373.671 131.897 373.671 175.472 c 28
 373.671 219.066 362.074 257.095 340.4 282.186 c 4
 308.067 319.616 268.151 335.77 210.707 335.771 c 4
 152.956 335.77 115.833 320.431 83.5 283 c 13
 48.5 257.5 l 21
 75 333.667 84.667 425 91 492.335 c 1
 73.5 510 l 1
 104 500.5 164.501 495 182.501 495 c 1
 237.501 495 267.001 495 323.501 510 c 9
 368.501 465 l 17
 292.501 477.5 244.501 480 183.001 479.878 c 1
 149.446 480 135 480 103.5 480 c 1
 86.4248 312.493 l 5
EndSplineSet
Fore
SplineSet
91.4248 304.993 m 1
 125.237 332.787 166.068 343.246 215.554 343.247 c 0
 275.259 343.246 328.66 328.775 366.041 286.25 c 0
 393.282 255.26 408.541 217.059 408.541 168.083 c 24
 408.541 119.046 393.168 80.6074 366.041 49.7471 c 0
 328.66 7.22168 275.259 -7.24902 215.554 -7.25 c 0
 157.001 -7.42285 97.252 11.9199 63.541 51.25 c 0
 56.541 59.417 50.208 68.083 43.541 80.75 c 9
 78.541 122.75 l 17
 81.541 92.25 91.915 68.9834 106.041 51.25 c 0
 129.541 21.75 162.041 7.72656 215.707 7.72656 c 0
 273.151 7.72656 313.067 23.8809 345.4 61.3115 c 0
 366.95 86.2588 378.671 124.397 378.671 167.972 c 24
 378.671 211.565 367.074 249.595 345.4 274.686 c 0
 313.067 312.116 273.151 328.27 215.707 328.271 c 0
 157.956 328.27 120.833 312.931 88.5 275.5 c 9
 53.5 250 l 17
 80 326.167 89.667 425 96 492.335 c 1
 78.5 510 l 1
 109 500.5 169.501 495 187.501 495 c 1
 242.501 495 272.001 495 328.501 510 c 9
 373.501 465 l 17
 297.501 477.5 249.501 480 188.001 479.878 c 1
 154.446 480 140 480 108.5 480 c 1
 91.4248 304.993 l 1
EndSplineSet
EndChar

StartChar: six
Encoding: 54 54 34
Width: 485
Flags: HMW
LayerCount: 2
Back
SplineSet
106 216.227 m 9
 95 227.5 l 17
 85 249 90.8564 267.328 98.5 281.5 c 0
 122.5 326 184.46 348.353 243.013 348.177 c 0
 302.718 348.176 356.119 333.491 393.5 290.338 c 0
 420.627 259.022 436 219.934 436 170.254 c 24
 436 120.638 420.741 81.79 393.5 50.3418 c 0
 356.119 7.18848 302.718 -7.49609 243.013 -7.49707 c 0
 183.308 -7.49609 135.5 9 98.8203 53.1064 c 0
 58.3408 101.781 45.459 169.233 45.459 249.998 c 0
 45.459 330.766 71.7188 401.038 113.167 448.893 c 0
 150.548 492.05 197.653 507.496 256.347 507.496 c 0
 315.04 507.496 365 495.318 405.347 465.383 c 9
 364.5 415.812 l 17
 360.5 443.235 353 461.519 332 475.23 c 0
 308.776 490.395 284.5 492.497 256.193 492.497 c 0
 199.762 492.497 166.157 475.304 133.808 437.306 c 0
 103.482 401.686 75.9609 326.055 75.9609 249.986 c 0
 75.9609 173.923 86.8643 105.416 119.461 64.6719 c 0
 150 26.5 185.415 7.48047 243.166 7.47949 c 0
 300.61 7.48047 340.526 23.8877 372.859 61.9062 c 0
 394.533 87.3906 406.13 126.077 406.13 170.295 c 24
 406.13 214.493 394.409 253.291 372.859 278.629 c 0
 340.526 316.647 300.61 333.056 243.166 333.056 c 0
 189.5 333.056 157 318.812 133.5 288.85 c 0
 119.374 270.838 109 247.205 106 216.227 c 9
EndSplineSet
Fore
SplineSet
114.615 217.302 m 13
 103.209 228.64 l 17
 93.4775 250.244 99.1768 268.661 106.615 282.901 c 0
 129.97 327.617 190.264 350.078 247.242 349.901 c 0
 305.342 349.9 357.307 335.145 393.683 291.782 c 0
 420.08 260.315 435.039 220.863 435.039 171.116 c 24
 435.039 121.433 420.19 82.2227 393.683 50.6221 c 0
 357.307 7.25977 305.342 -7.49609 247.242 -7.49707 c 0
 189.143 -7.49609 142.62 9.08008 106.927 53.4004 c 0
 67.5352 102.312 55 170.091 55 251.247 c 0
 55 332.406 80.5537 403.02 120.888 451.106 c 0
 157.264 494.473 203.102 509.994 260.217 509.994 c 0
 317.332 509.994 365.948 497.757 405.211 467.676 c 9
 365.151 417.915 l 21
 361.274 445.479 354.006 463.856 333.652 477.64 c 4
 311.144 492.882 287.616 494.995 260.181 494.995 c 4
 205.488 494.995 172.919 477.713 141.566 439.52 c 4
 112.175 403.716 85.502 327.695 85.502 251.235 c 4
 85.502 174.78 96.0693 105.92 127.662 64.9668 c 4
 157.26 26.5977 191.584 7.48047 247.556 7.47949 c 4
 303.229 7.48047 341.916 23.9727 373.253 62.1865 c 4
 394.259 87.8018 405.498 126.822 405.498 171.134 c 28
 405.498 215.425 394.139 254.557 373.253 280.025 c 4
 341.916 318.239 303.229 334.732 247.556 334.732 c 4
 195.543 334.732 164.044 320.416 141.269 290.299 c 4
 127.577 272.194 117.523 248.439 114.615 217.302 c 13
EndSplineSet
EndChar

StartChar: seven
Encoding: 55 55 35
Width: 431
Flags: HMW
LayerCount: 2
Back
SplineSet
305 485 m 0
 332 485 364 485 386.5 476.5 c 1
 323.117 324.16 239.092 119.803 173 0 c 13
 231.834 24.2607 l 21
 271.002 144.436 360.379 368.009 418 506.5 c 1
 302.5 495 144.5 500 32 515 c 9
 77 470 l 17
 157 485 244.5 485 305 485 c 0
EndSplineSet
Fore
SplineSet
293 485 m 0
 232.5 485 145 485 65 470 c 9
 20 515 l 17
 132.5 500 290.5 495 406 506.5 c 1
 348.379 368.009 254.002 134.436 214.834 14.2607 c 9
 156 -10 l 17
 222.092 109.803 311.117 324.16 374.5 476.5 c 1
 352 485 320 485 293 485 c 0
EndSplineSet
EndChar

StartChar: nine
Encoding: 57 57 36
Width: 485
Flags: HMW
LayerCount: 2
Back
SplineSet
238.438 151.822 m 0
 181.719 151.822 125.34 166.508 87.959 209.661 c 0
 60.832 240.977 45.459 280.065 45.459 329.744 c 24
 45.459 379.36 60.7178 418.209 87.959 449.657 c 0
 125.34 492.81 178.741 507.495 238.446 507.496 c 0
 298.151 507.495 345.258 492.045 382.639 448.892 c 0
 424.088 401.041 436 330.766 436 250.001 c 0
 436 169.233 417 102 369.292 50.1055 c 0
 331.73 9.24695 283.806 -7.49707 225.112 -7.49707 c 0
 166.419 -7.49707 116.459 4.67969 76.1123 34.6162 c 9
 116.959 84.1885 l 17
 120.959 56.7646 128.459 38.4814 149.459 24.7695 c 0
 172.683 9.60547 196.959 7.50293 225.266 7.50293 c 0
 281.697 7.50293 316.308 25.2243 348.651 61.6943 c 0
 387.5 105.5 406 172.5 405.498 250.014 c 0
 405.005 326.075 395.803 397.58 361.998 437.329 c 0
 329.665 475.347 296.044 492.52 238.293 492.521 c 0
 180.849 492.52 140.933 476.112 108.6 438.094 c 0
 86.9258 412.609 75.3291 373.924 75.3291 329.705 c 24
 75.3291 285.507 87.0498 246.709 108.6 221.37 c 0
 140.933 183.353 183.722 166.943 238.293 166.943 c 0
 289.275 166.943 320.15 181.188 342.476 211.149 c 0
 355.896 229.162 365.751 252.795 368.601 283.772 c 9
 379.051 272.5 l 17
 388.551 251 382.987 232.672 375.726 218.5 c 0
 352.926 174 294.063 151.646 238.438 151.822 c 0
EndSplineSet
Fore
SplineSet
232.79 152.595 m 0
 177.596 152.595 122.733 167.352 86.3574 210.715 c 0
 59.96 242.182 45 281.633 45 331.38 c 24
 45 381.062 59.8486 420.273 86.3574 451.874 c 0
 122.733 495.236 174.698 509.993 232.798 509.994 c 0
 290.896 509.993 336.737 494.468 373.113 451.105 c 0
 413.447 403.022 425.039 332.406 425.039 251.25 c 0
 425.039 170.091 406.55 102.531 360.125 50.3848 c 0
 323.573 9.32812 276.938 -7.49707 219.822 -7.49707 c 0
 162.707 -7.49707 114.091 4.73828 74.8291 34.8203 c 9
 115.218 84.583 l 17
 119.094 57.0186 126.363 38.6406 146.716 24.8584 c 0
 169.225 9.61621 192.753 7.50293 220.187 7.50293 c 0
 274.88 7.50293 308.425 25.3154 339.771 61.9736 c 0
 377.423 106.005 395.354 173.35 394.866 251.263 c 0
 394.389 327.716 385.471 399.589 352.707 439.543 c 0
 321.37 477.756 288.785 495.018 232.813 495.02 c 0
 177.139 495.018 138.453 478.525 107.116 440.312 c 0
 86.1094 414.695 74.8701 375.676 74.8701 331.364 c 24
 74.8701 287.073 86.2295 247.94 107.116 222.472 c 0
 138.453 184.258 179.923 167.765 232.813 167.765 c 0
 282.225 167.765 312.148 182.082 333.786 212.198 c 0
 346.792 230.304 356.344 254.059 359.105 285.195 c 9
 369.621 273.858 l 17
 378.866 252.254 373.452 233.837 366.386 219.596 c 0
 344.199 174.88 286.92 152.418 232.79 152.595 c 0
EndSplineSet
EndChar

StartChar: eight
Encoding: 56 56 37
Width: 510
Flags: HMW
LayerCount: 2
Back
SplineSet
366.001 332.969 m 5
 371 346.254 375.277 360.221 375.277 386.995 c 4
 375.277 415.591 366.232 439.278 349.327 455.351 c 4
 335.131 468.847 308.862 489.674 248.166 489.674 c 4
 202.111 489.673 171.889 479.234 146.766 455.351 c 4
 129.86 439.278 120.815 415.591 120.815 386.995 c 28
 120.815 358.413 129.957 334.653 146.766 318.674 c 4
 171.985 294.697 203.12 284.352 247.927 284.352 c 4
 289.786 284.352 315.136 293.334 333.466 312.229 c 4
 344.484 323.588 352.576 338.491 354.916 358.028 c 5
 366.001 332.969 l 5
322.852 280.446 m 4
 351.915 273.02 377.69 260.403 398.5 240.444 c 4
 425.627 214.427 441 182.97 441 140.678 c 28
 441 98.4365 425.741 67.1807 398.5 41.0527 c 4
 361.119 5.20117 307.718 -6.99902 248.013 -7 c 4
 188.308 -6.99902 134.906 5.20117 97.5254 41.0527 c 4
 70.2842 67.1807 55.0254 98.4365 55.0254 140.678 c 20
 55.0254 182.216 69.7842 213.415 96.001 239.176 c 4
 115.403 258.24 143.409 271.697 174.846 279.868 c 4
 156.997 285.924 141.023 294.945 127.623 307.752 c 4
 105.83 328.58 93.623 353.477 93.623 387.168 c 20
 93.623 420.282 105.429 445.151 126.403 465.688 c 4
 153.385 492.105 201.171 505.062 248.013 505.004 c 4
 295.776 504.945 338.497 495.278 368.402 466.697 c 4
 390.104 445.958 402.402 420.9 402.402 387.168 c 28
 402.402 353.477 390.195 328.58 368.402 307.752 c 4
 355.422 295.346 340.026 286.493 322.852 280.446 c 4
97 207.5 m 5
 89 192 84.8955 174 84.8955 139.79 c 4
 84.8955 102.953 96.4922 72.1748 118.166 51.3896 c 4
 150.499 20.3828 190.415 7.00098 247.859 7 c 4
 305.61 7.00098 345.526 20.3828 377.859 51.3896 c 4
 399.533 72.1748 411.13 102.953 411.13 139.79 c 28
 411.13 176.611 399.409 207.48 377.859 228.146 c 4
 341.965 262.569 300.043 272.535 248.166 272.535 c 4
 204.3 272.535 166.781 265.891 138.5 236.481 c 4
 124.374 221.792 114 202.518 111 177.251 c 5
 97 207.5 l 5
EndSplineSet
Fore
SplineSet
379.04 335.544 m 1
 384.275 349.032 388.753 363.217 388.753 390.403 c 0
 388.753 419.44 379.282 443.492 361.579 459.815 c 0
 346.715 473.52 319.208 494.667 255.651 494.667 c 0
 207.427 494.665 175.78 484.066 149.474 459.815 c 0
 131.771 443.492 122.3 419.44 122.3 390.403 c 24
 122.3 361.381 131.873 337.255 149.474 321.028 c 0
 175.881 296.683 208.483 286.178 255.401 286.178 c 0
 299.233 286.178 325.778 295.298 344.972 314.483 c 0
 356.509 326.019 364.981 341.152 367.433 360.99 c 1
 379.04 335.544 l 1
333.246 281.897 m 0
 363.439 274.354 390.217 261.539 411.836 241.266 c 0
 440.019 214.837 455.99 182.883 455.99 139.925 c 24
 455.99 97.0166 440.138 65.2666 411.836 38.7266 c 0
 373.002 2.30859 317.523 -10.084 255.495 -10.085 c 0
 193.469 -10.084 137.988 2.30859 99.1533 38.7266 c 0
 70.8525 65.2666 55 97.0166 55 139.925 c 16
 55 182.117 70.333 213.809 97.5693 239.977 c 0
 117.727 259.342 146.821 273.012 179.481 281.31 c 0
 160.938 287.463 144.343 296.625 130.422 309.636 c 0
 107.781 330.791 95.0996 356.082 95.0996 390.303 c 16
 95.0996 423.939 107.365 449.202 129.155 470.062 c 0
 157.187 496.896 206.832 510.059 255.495 510 c 0
 305.116 509.94 349.499 500.12 380.567 471.089 c 0
 403.114 450.021 415.892 424.567 415.892 390.303 c 24
 415.892 356.082 403.208 330.791 380.567 309.636 c 0
 367.083 297.032 351.089 288.04 333.246 281.897 c 0
97.5381 208.252 m 1
 89.1699 192.495 84.877 174.2 84.877 139.428 c 0
 84.877 101.985 97.0068 70.7012 119.677 49.5742 c 0
 153.496 18.0586 195.247 4.45703 255.332 4.45508 c 0
 315.738 4.45703 357.489 18.0586 391.309 49.5742 c 0
 413.979 70.7012 426.108 101.985 426.108 139.428 c 24
 426.108 176.854 413.849 208.231 391.309 229.238 c 0
 353.765 264.226 309.915 274.356 255.652 274.356 c 0
 209.771 274.356 170.527 267.603 140.946 237.709 c 0
 126.17 222.778 115.319 203.188 112.182 177.506 c 1
 97.5381 208.252 l 1
EndSplineSet
EndChar

StartChar: exclam
Encoding: 33 33 38
Width: 242
Flags: HMW
LayerCount: 2
Back
SplineSet
70 20 m 0
 70 36.5596 83.8877 50 101 50 c 0
 118.112 50 132 36.5596 132 20 c 0
 132 3.44043 118.112 -10 101 -10 c 0
 83.8877 -10 70 3.44043 70 20 c 0
87.8418 264 m 0
 87.8418 355 91 440 76 520 c 9
 121 565 l 17
 109.264 482.844 103 418.532 103 265 c 0
 103 226 104 187 119 157 c 9
 82 135 l 17
 87 177 88 221.034 87.8418 264 c 0
EndSplineSet
Fore
SplineSet
83.7998 26 m 4
 83.7998 45.8711 100.465 62 121 62 c 4
 141.535 62 158.2 45.8711 158.2 26 c 4
 158.2 6.12891 141.535 -10 121 -10 c 4
 100.465 -10 83.7998 6.12891 83.7998 26 c 4
107.842 294 m 0
 107.842 385 111 470 96 550 c 9
 141 595 l 17
 129.264 512.844 123 448.532 123 295 c 0
 123 256 124 217 139 187 c 9
 102 165 l 17
 107 207 108 251.034 107.842 294 c 0
EndSplineSet
EndChar

StartChar: quotedbl
Encoding: 34 34 39
Width: 396
Flags: HMW
LayerCount: 2
Back
SplineSet
162 418.882 m 2
 158.983 497 l 2
 158.423 511.517 165.488 523.104 177 528.5 c 2
 217.173 547.799 l 2
 228.04 553.02 237.716 551 246.05 544.666 c 0
 252.158 540.022 255.684 530.007 253.383 519.001 c 2
 233 421.5 l 2
 230.822 411.167 225.425 404.314 215.999 399.834 c 2
 189 387 l 2
 179.176 382.021 167.8 387.683 164.6 394.482 c 0
 161.709 400.625 162.343 410.014 162 418.882 c 2
22 418.882 m 2
 18.9834 497 l 2
 18.4228 511.516 25.4883 523.104 37 528.5 c 2
 77.1729 547.799 l 2
 88.04 553.02 97.7158 551 106.05 544.666 c 0
 112.158 540.022 115.684 530.007 113.383 519.001 c 2
 93 421.5 l 2
 90.8223 411.167 85.4248 404.314 75.999 399.834 c 2
 49 387 l 2
 39.1758 382.021 27.7998 387.683 24.5996 394.482 c 0
 21.709 400.625 22.3425 410.013 22 418.882 c 2
EndSplineSet
Fore
SplineSet
276.559 474.224 m 0
 283.685 493.179 302.182 537.104 263.899 560.31 c 9
 348.899 581.81 l 17
 325.399 550.81 308.399 518.81 291.598 472.977 c 0
 282.253 447.486 276.471 421.374 277.998 392.757 c 9
 224 377 l 17
 245.444 411.818 263.607 439.774 276.559 474.224 c 0
96.5586 474.224 m 0
 103.685 493.179 122.182 537.104 83.8994 560.31 c 9
 168.899 581.81 l 17
 145.399 550.81 128.399 518.81 111.598 472.977 c 0
 102.253 447.486 96.4707 421.374 97.998 392.757 c 9
 44 377 l 17
 65.4443 411.818 83.6074 439.774 96.5586 474.224 c 0
EndSplineSet
EndChar

StartChar: percent
Encoding: 37 37 40
Width: 552
Flags: HMW
LayerCount: 2
Back
SplineSet
64.5684 375.002 m 0
 64.5684 339.811 69.124 306.73 85.0098 288.341 c 0
 100.203 270.752 116.002 262.807 142.996 262.806 c 0
 169.183 262.807 185.452 270.752 200.646 288.341 c 0
 216.531 306.73 221.086 339.811 221.086 375.002 c 0
 221.086 410.195 214.896 445.186 200.646 461.666 c 0
 185.444 479.245 169.653 487.2 143.135 487.2 c 0
 127.499 487.2 117.453 484.615 107.35 476.626 c 0
 98.7969 469.865 90 453 100.278 431.137 c 0
 118.817 391.702 145.942 362.368 176.117 349.087 c 0
 221.387 329.162 269.119 326.841 321 351.5 c 0
 357.855 369.02 378.434 391.02 392.132 414.372 c 0
 408.857 442.327 422.12 476.924 403.776 502.502 c 9
 474.662 496.041 l 17
 443.861 455.079 413.06 414.118 382.259 373.156 c 0
 313.803 282.312 169.993 91.7324 121.791 2.84082 c 9
 52 -15 l 17
 119.824 56.4228 233.483 203.421 345.5 350 c 1
 338.5 344.75 331.75 340.75 324.5 337.5 c 0
 270.019 313.077 223.018 313.14 171 335.5 c 0
 133.252 351.727 88.4336 396.93 78.2148 459.71 c 1
 67.4072 434.334 64.5684 405.865 64.5684 375.002 c 0
299.167 124.996 m 0
 299.167 164.203 305.61 198.315 328.024 221.546 c 0
 348.239 242.495 373.714 249.993 405.994 249.993 c 0
 437.733 249.993 463.207 242.495 483.422 221.546 c 0
 505.836 198.315 512.279 164.203 512.279 124.996 c 0
 512.279 85.79 505.837 51.6768 483.422 28.4482 c 0
 463.207 7.5 437.733 0.000976562 406 0 c 0
 373.714 0.000976562 348.239 7.5 328.024 28.4482 c 0
 305.609 51.6768 299.167 85.79 299.167 124.996 c 0
327.562 124.995 m 0
 327.562 89.8037 332.118 56.7236 348.004 38.334 c 0
 363.197 20.7451 378.996 12.7998 405.99 12.7988 c 0
 432.177 12.7998 448.446 20.7451 463.64 38.334 c 0
 479.525 56.7236 484.08 89.8037 484.08 124.995 c 0
 484.08 160.188 477.89 195.179 463.64 211.659 c 0
 448.438 229.238 432.647 237.193 406.129 237.193 c 0
 390.493 237.193 380.447 234.608 370.344 226.619 c 0
 361.791 219.858 355.541 211.113 355.307 191.377 c 9
 341.209 209.703 l 17
 330.401 184.327 327.562 155.858 327.562 124.995 c 0
36.1729 375.003 m 0
 36.1729 414.21 42.6162 448.322 65.0303 471.553 c 0
 85.2451 492.502 110.72 500 143 500 c 0
 174.739 500 200.213 492.502 220.428 471.553 c 0
 242.842 448.322 249.285 414.21 249.285 375.003 c 0
 249.285 335.797 242.843 301.684 220.428 278.455 c 0
 200.213 257.507 174.739 250.008 143.006 250.007 c 0
 110.72 250.008 85.2451 257.507 65.0303 278.455 c 0
 42.6152 301.684 36.1729 335.797 36.1729 375.003 c 0
EndSplineSet
Fore
SplineSet
36.1729 375.002 m 0
 36.1729 414.209 42.6162 448.322 65.0303 471.553 c 0
 85.2451 492.502 110.72 500 143 500 c 0
 174.739 500 200.213 492.502 220.428 471.553 c 0
 242.842 448.322 249.285 414.209 249.285 375.002 c 0
 249.285 360.385 248.39 346.476 246.105 333.575 c 1
 270.174 333.59 295.069 339.175 321 351.5 c 0
 357.855 369.02 378.333 391.08 392.132 414.372 c 0
 408.736 442.399 422.12 476.924 403.776 502.502 c 1
 474.662 496.041 l 1
 443.861 455.079 413.06 414.118 382.259 373.156 c 0
 313.897 282.241 169.993 91.7324 121.791 2.84082 c 1
 52 -15 l 1
 119.824 56.4228 233.483 203.421 345.5 350 c 1
 338.5 344.75 331.75 340.75 324.5 337.5 c 0
 295.789 324.63 269.156 318.559 242.771 318.968 c 1
 238.321 303.369 231.229 289.648 220.428 278.455 c 0
 200.213 257.507 174.733 249.993 143 249.993 c 0
 110.714 249.993 85.2451 257.507 65.0303 278.455 c 0
 42.6152 301.684 36.1729 335.796 36.1729 375.002 c 0
327.562 124.995 m 0
 327.562 89.8037 332.118 56.7239 348.004 38.334 c 0
 363.197 20.7454 379 12.7998 405.994 12.7988 c 0
 432.181 12.7998 448.446 20.7451 463.64 38.334 c 0
 479.525 56.7236 484.08 89.8037 484.08 124.995 c 0
 484.08 160.188 477.89 195.179 463.64 211.659 c 0
 448.438 229.238 432.647 237.193 406.129 237.193 c 0
 390.493 237.193 380.448 234.607 370.344 226.619 c 0
 361.792 219.857 355.541 211.113 355.307 191.377 c 1
 341.209 209.703 l 1
 330.401 184.327 327.562 155.858 327.562 124.995 c 0
299.167 124.995 m 0
 299.167 164.202 305.61 198.315 328.024 221.546 c 0
 348.239 242.495 373.714 249.993 405.994 249.993 c 0
 437.733 249.993 463.207 242.495 483.422 221.546 c 0
 505.836 198.315 512.279 164.202 512.279 124.995 c 0
 512.279 85.789 505.837 51.6768 483.422 28.4482 c 0
 463.207 7.5 437.727 0.000976562 405.994 0 c 0
 373.708 0.000976562 348.239 7.5 328.024 28.4482 c 0
 305.609 51.6768 299.167 85.789 299.167 124.995 c 0
64.5684 375.002 m 0
 64.5684 339.811 69.1244 306.73 85.0098 288.341 c 0
 100.203 270.752 116.006 262.807 143 262.806 c 0
 169.187 262.807 185.452 270.752 200.646 288.341 c 0
 207.913 296.754 212.809 308.242 215.983 321.6 c 1
 201.211 324.262 186.323 328.913 171 335.5 c 0
 133.252 351.727 88.4336 396.93 78.2148 459.71 c 1
 67.4072 434.334 64.5684 405.865 64.5684 375.002 c 0
218.667 335.965 m 1
 220.409 348.183 221.086 361.436 221.086 375.002 c 0
 221.086 410.195 214.896 445.186 200.646 461.666 c 0
 185.444 479.245 169.653 487.2 143.135 487.2 c 0
 127.499 487.2 117.454 484.614 107.35 476.626 c 0
 98.7975 469.864 90 453 100.278 431.137 c 0
 118.817 391.702 145.942 362.368 176.117 349.087 c 0
 190.051 342.954 204.218 338.489 218.667 335.965 c 1
EndSplineSet
EndChar

StartChar: quotesingle
Encoding: 39 39 41
Width: 217
Flags: HMW
LayerCount: 2
Back
SplineSet
88.1592 461.914 m 0
 75.208 427.465 57.0449 399.509 35.6006 364.69 c 9
 89.5986 380.447 l 17
 88.0713 409.064 93.9863 435.129 103.198 460.667 c 0
 114.39 490.887 128.427 522.094 144.92 547.943 c 9
 75.5 548 l 17
 113.782 524.794 95.2852 480.869 88.1592 461.914 c 0
88.1592 461.914 m 0
 75.208 427.465 57.0449 399.509 35.6006 364.69 c 9
 89.5986 380.447 l 17
 88.0713 409.064 93.9863 435.129 103.198 460.667 c 0
 114.39 490.887 128.427 522.094 144.92 547.943 c 9
 75.5 548 l 17
 113.782 524.794 95.2852 480.869 88.1592 461.914 c 0
57.7363 409.179 m 6
 54.25 502.92 l 6
 53.6035 520.339 61.7686 534.245 75.0703 540.72 c 6
 121.495 563.879 l 6
 134.052 570.145 145.233 567.72 154.864 560.119 c 4
 161.923 554.547 165.998 542.528 163.339 529.321 c 6
 139.785 412.32 l 6
 137.268 399.921 131.031 391.697 120.138 386.321 c 6
 88.9375 370.92 l 6
 77.5859 364.945 64.4395 371.739 60.7412 379.898 c 4
 57.4004 387.271 58.1318 398.536 57.7363 409.179 c 6
EndSplineSet
Fore
SplineSet
96.5586 474.224 m 0
 103.685 493.179 122.182 537.104 83.8994 560.31 c 9
 168.899 581.81 l 17
 145.399 550.81 128.399 518.81 111.598 472.977 c 0
 102.253 447.486 96.4707 421.374 97.998 392.757 c 9
 44 377 l 17
 65.4443 411.818 83.6074 439.774 96.5586 474.224 c 0
EndSplineSet
EndChar

StartChar: parenleft
Encoding: 40 40 42
Width: 308
Flags: HMW
LayerCount: 2
Back
SplineSet
198.668 604.333 m 18
 212.757 604.333 l 2
 232.245 604.748 235.391 589.047 227.752 574.333 c 0
 207.073 534.5 184.98 488.724 166.272 423 c 0
 147.912 358.5 142.808 323.264 142.808 250 c 0
 142.808 187 154.022 114 170.215 63 c 4
 185.066 16.2197 205.85 -31.5 228.036 -73.167 c 0
 235.55 -87.2773 230.699 -103.02 212.743 -103.667 c 2
 193.154 -103.667 l 10
 175.515 -103.667 165.994 -91.4443 156.7 -75.667 c 0
 129.8 -30 105.591 21.5 90.8828 73 c 0
 70.8301 143.214 60.2695 189 60.1465 250 c 0
 60.0283 307.977 74.7773 386.89 94.1416 442 c 0
 114.053 498.667 135.523 536 161.628 575.333 c 0
 171.84 590.72 180.024 604.333 198.668 604.333 c 18
EndSplineSet
Fore
SplineSet
273.311 581.599 m 9
 278.363 568.691 l 17
 250.07 555.841 225.606 537.431 201.574 512.981 c 0
 145.796 456.238 129.799 354.159 129.799 245.572 c 0
 129.799 136.979 151.538 29.0098 201.574 -21.8408 c 0
 225.042 -45.6904 248.911 -63.7998 276.389 -76.6055 c 1
 270.311 -89.8984 l 17
 236.619 -77.0557 206.682 -57.3994 180.041 -29.1104 c 0
 117.869 36.9111 100 133.878 100 245.307 c 0
 100 356.731 117.867 453.67 180.041 519.686 c 0
 207.472 548.812 238.394 568.789 273.311 581.599 c 9
EndSplineSet
EndChar

StartChar: parenright
Encoding: 41 41 43
Width: 308
Flags: HMW
LayerCount: 2
Back
SplineSet
116.616 -97.667 m 18
 54.6162 -98.667 l 2
 35.1182 -99.2236 29.5703 -81.3369 40.6162 -68.667 c 0
 74.6162 -29.667 107.872 14.2188 137.361 79.333 c 0
 166.949 144.666 182.192 227.248 177.677 300.333 c 0
 173.949 360.666 160.949 407.666 134.797 454.333 c 0
 107.891 502.345 78.9492 537.999 48.3115 577.833 c 0
 38.6963 590.334 46.6396 607.686 64.6162 608.333 c 2
 137.616 610.333 l 10
 155.251 610.816 165.896 598.867 173.142 582.333 c 0
 194.616 533.333 207.615 491.666 222.068 435.333 c 0
 240.064 365.188 240.118 297.333 238.218 236.333 c 0
 236.412 178.355 224.872 124.022 207.818 67.333 c 0
 189.767 7.33301 176.468 -24.667 154.618 -68.667 c 0
 146.276 -85.4648 135.257 -97.3662 116.616 -97.667 c 18
EndSplineSet
Fore
SplineSet
35.0527 -89.8984 m 9
 30 -76.9912 l 17
 58.293 -64.1406 82.7568 -45.7305 106.789 -21.2812 c 0
 162.567 35.4619 178.564 137.541 178.564 246.128 c 0
 178.564 354.722 156.825 462.69 106.789 513.541 c 0
 83.3213 537.391 59.4521 555.5 31.9746 568.306 c 1
 38.0527 581.599 l 17
 71.7441 568.756 101.682 549.1 128.322 520.811 c 0
 190.494 454.789 208.363 357.822 208.363 246.394 c 0
 208.363 134.969 190.496 38.0303 128.322 -27.9854 c 0
 100.892 -57.1113 69.9697 -77.0889 35.0527 -89.8984 c 9
EndSplineSet
EndChar

StartChar: asterisk
Encoding: 42 42 44
Width: 496
VWidth: 0
Flags: HMW
LayerCount: 2
Back
SplineSet
196.16 306.66 m 2
 184.931 382.998 l 2
 181.595 401.215 190.105 414.498 209.005 414.498 c 2
 242.893 414.499 l 2
 261.792 414.5 270.113 401.209 266.78 382.998 c 2
 255.365 305.665 l 2
 254.058 296.801 259.395 293.856 266.422 294.998 c 2
 358.799 310 l 2
 378.725 313.236 391.172 301.438 387.688 284 c 2
 382.695 258.997 l 2
 379.503 243.014 366.73 233.631 345.245 231.997 c 2
 283.906 227.333 l 2
 275.573 226.699 272.249 221.499 277.842 215.001 c 2
 322.778 162.791 l 2
 334.746 148.886 338.779 133.689 333.243 114.734 c 2
 329.07 100.432 l 2
 322.058 76.3975 290.104 72.8535 274.681 99.7568 c 2
 235.748 167.668 l 2
 229.867 177.926 220.551 177.801 214.585 167.333 c 2
 176.073 99.7559 l 2
 160.644 72.6826 128.591 76.7754 121.684 100.431 c 2
 117.506 114.733 l 2
 111.979 133.663 115.162 148.095 127.976 162.79 c 2
 172.627 214 l 2
 178.053 220.242 175.996 226.523 166.117 227.25 c 2
 101.642 231.997 l 2
 86.4131 233.118 69.7275 240.981 66.335 254.997 c 2
 59.5557 283 l 2
 55.8652 298.241 67.6475 312.575 84.7002 310 c 2
 184.032 294.999 l 2
 191.921 293.808 197.581 296.998 196.16 306.66 c 2
EndSplineSet
Fore
SplineSet
267.308 254.729 m 5
 292.47 220.604 331.436 171.915 377.225 128.922 c 1
 314.367 138.879 l 1
 297.517 181.251 269.886 224.624 255.122 245.81 c 1
 230.441 211.334 196.176 159.229 169.438 102.396 c 1
 159.482 165.253 l 1
 194.574 194.373 227.285 234.055 242.873 254.644 c 1
 202.458 267.462 142.314 283.949 80 291.816 c 1
 136.705 320.708 l 1
 175.243 296.333 223.091 277.485 247.488 269.023 c 1
 247.19 311.42 244.285 373.715 232.512 435.41 c 1
 277.512 390.41 l 1
 266.239 346.225 263.1 294.894 262.591 269.075 c 5
 302.82 282.461 361.168 304.474 416.207 334.736 c 5
 387.313 278.032 l 5
 341.808 275.1 292.019 262.225 267.308 254.729 c 5
EndSplineSet
EndChar

StartChar: plus
Encoding: 43 43 45
Width: 507
VWidth: 0
Flags: HMW
LayerCount: 2
Back
SplineSet
246.414 261.41 m 0
 246.414 239.375 243.914 181.586 231.414 132.586 c 9
 276.414 87.5859 l 17
 263.914 153.086 261.414 219.263 261.41 261.586 c 0
 261.41 283.621 263.91 341.41 276.41 390.41 c 9
 231.41 435.41 l 17
 243.91 369.91 246.41 303.733 246.414 261.41 c 0
253.824 254 m 0
 231.789 254 174 251.5 125 239 c 9
 80 284 l 17
 145.5 271.5 211.677 269 254 268.996 c 0
 276.035 268.996 333.824 271.496 382.824 283.996 c 9
 427.824 238.996 l 17
 362.324 251.496 296.147 253.996 253.824 254 c 0
EndSplineSet
Fore
SplineSet
246.387 269.023 m 5
 246.089 311.42 243.184 373.715 231.41 435.41 c 5
 276.41 390.41 l 5
 265.138 346.225 261.998 294.894 261.49 269.076 c 5
 287.308 269.584 338.639 272.724 382.824 283.996 c 1
 427.824 238.996 l 1
 366.129 250.77 303.834 253.675 261.437 253.973 c 1
 261.738 211.576 264.636 149.281 276.41 87.5859 c 1
 231.41 132.586 l 1
 242.682 176.771 245.825 228.102 246.334 253.92 c 1
 220.516 253.411 169.185 250.268 125 238.996 c 1
 80 283.996 l 1
 141.695 272.222 203.99 269.324 246.387 269.023 c 5
EndSplineSet
EndChar

StartChar: comma
Encoding: 44 44 46
Width: 214
Flags: HMW
LayerCount: 2
Back
SplineSet
96.5586 -39.5859 m 4
 103.686 -20.6309 122.183 23.2939 83.8994 46.5 c 13
 168.899 68 l 21
 145.399 37 128.399 5 111.599 -40.833 c 4
 102.253 -66.3242 96.4707 -92.4355 97.998 -121.053 c 13
 44 -136.81 l 21
 65.4443 -101.992 83.6074 -74.0361 96.5586 -39.5859 c 4
EndSplineSet
Fore
SplineSet
107.2 61.998 m 4
 86.665 61.998 70 45.8691 70 25.998 c 4
 70 6.12695 86.665 -10.002 107.2 -10.002 c 4
 109.345 -10.002 111.447 -9.82617 113.493 -9.48828 c 5
 111.135 -20.2725 107.251 -29.958 104.759 -36.5879 c 4
 91.8066 -71.0381 73.6445 -98.9941 52.2002 -133.812 c 5
 106.198 -118.055 l 5
 104.671 -89.4375 110.453 -63.3262 119.799 -37.835 c 4
 125.575 -22.0762 132.002 -7.08008 138.082 5.92969 c 5
 142.071 11.665 144.4 18.5703 144.4 25.998 c 4
 144.4 45.8691 127.734 61.998 107.2 61.998 c 4
EndSplineSet
EndChar

StartChar: hyphen
Encoding: 45 45 47
Width: 435
VWidth: 0
Flags: HMW
LayerCount: 2
Fore
SplineSet
220.824 254 m 0
 198.789 254 141 251.5 92 239 c 9
 47 284 l 17
 112.5 271.5 178.677 269 221 268.996 c 0
 243.035 268.996 300.824 271.496 349.824 283.996 c 9
 394.824 238.996 l 17
 329.324 251.496 263.147 253.996 220.824 254 c 0
EndSplineSet
EndChar

StartChar: period
Encoding: 46 46 48
Width: 214
Flags: HMW
LayerCount: 2
Back
SplineSet
70 20 m 0
 70 36.5596 83.8877 50 101 50 c 0
 118.112 50 132 36.5596 132 20 c 0
 132 3.44043 118.112 -10 101 -10 c 0
 83.8877 -10 70 3.44043 70 20 c 0
EndSplineSet
Fore
SplineSet
70 26 m 4
 70 45.8711 86.665 62 107.2 62 c 4
 127.734 62 144.4 45.8711 144.4 26 c 4
 144.4 6.12891 127.734 -10 107.2 -10 c 4
 86.665 -10 70 6.12891 70 26 c 4
EndSplineSet
EndChar

StartChar: slash
Encoding: 47 47 49
Width: 418
Flags: HMW
LayerCount: 2
Back
SplineSet
86.5752 19.0557 m 6
 369.906 502.201 l 6
 381.176 521.417 398.291 535.275 413.507 536.745 c 6
 458.586 541.646 l 6
 475.117 543.443 482.414 527.218 478.859 513.465 c 4
 475.649 501.042 468.99 490.82 455.82 469.671 c 6
 158.36 -7.99414 l 6
 148.672 -23.5508 135.774 -33.9717 123.475 -35.6299 c 6
 84.3643 -38.5244 l 6
 71.1113 -39.5049 65.3018 -26.9814 68.1426 -15.9814 c 4
 70.7109 -6.04102 78.0342 4.49121 86.5752 19.0557 c 6
EndSplineSet
Fore
SplineSet
199.061 251.733 m 0
 250.219 336.261 331.009 472.275 356.39 539.831 c 9
 418.195 555 l 17
 369.971 496.165 290.317 369.759 215.301 248.444 c 0
 164.915 163.469 86.2608 28.0744 61.6641 -39.2646 c 9
 0 -55 l 17
 47.4654 4.0041 125.458 130.247 199.061 251.733 c 0
EndSplineSet
EndChar

StartChar: colon
Encoding: 58 58 50
Width: 214
Flags: HMW
LayerCount: 2
Back
SplineSet
70 338 m 0
 70 354.56 83.8877 368 101 368 c 0
 118.112 368 132 354.56 132 338 c 0
 132 321.44 118.112 308 101 308 c 0
 83.8877 308 70 321.44 70 338 c 0
70 20 m 4
 70 36.5596 83.8877 50 101 50 c 4
 118.112 50 132 36.5596 132 20 c 4
 132 3.44043 118.112 -10 101 -10 c 4
 83.8877 -10 70 3.44043 70 20 c 4
EndSplineSet
Fore
SplineSet
70 344 m 4
 70 363.872 86.665 380 107.2 380 c 4
 127.734 380 144.4 363.872 144.4 344 c 4
 144.4 324.128 127.734 308 107.2 308 c 4
 86.665 308 70 324.128 70 344 c 4
70 26 m 0
 70 45.8711 86.665 62 107.2 62 c 0
 127.734 62 144.4 45.8711 144.4 26 c 0
 144.4 6.12891 127.734 -10 107.2 -10 c 0
 86.665 -10 70 6.12891 70 26 c 0
EndSplineSet
EndChar

StartChar: semicolon
Encoding: 59 59 51
Width: 214
Flags: HMW
LayerCount: 2
Back
SplineSet
70 344 m 0
 70 363.872 86.665 380 107.2 380 c 0
 127.734 380 144.4 363.872 144.4 344 c 0
 144.4 324.128 127.734 308 107.2 308 c 0
 86.665 308 70 324.128 70 344 c 0
70 26 m 4
 70 45.8711 86.665 62 107.2 62 c 4
 127.734 62 148.533 44.333 144.201 18.001 c 4
 135.897 -32.4688 115.2 -79.667 79.2002 -124.5 c 13
 70.7998 -119.871 l 21
 80.3994 -100.271 95.5332 -48.0332 95.5332 -8.19141 c 5
 80.707 -3.45117 70 10.0713 70 26 c 4
EndSplineSet
Fore
SplineSet
70 344 m 0
 70 363.872 86.665 380 107.2 380 c 0
 127.734 380 144.4 363.872 144.4 344 c 0
 144.4 324.128 127.734 308 107.2 308 c 0
 86.665 308 70 324.128 70 344 c 0
107.2 61.998 m 4
 86.665 61.998 70 45.8691 70 25.998 c 4
 70 6.12695 86.665 -10.002 107.2 -10.002 c 4
 109.345 -10.002 111.447 -9.82617 113.493 -9.48828 c 5
 111.135 -20.2725 107.251 -29.958 104.759 -36.5879 c 4
 91.8066 -71.0381 73.6445 -98.9941 52.2002 -133.812 c 5
 106.198 -118.055 l 5
 104.671 -89.4375 110.453 -63.3262 119.799 -37.835 c 4
 125.575 -22.0762 132.002 -7.08008 138.082 5.92969 c 5
 142.071 11.665 144.4 18.5703 144.4 25.998 c 4
 144.4 45.8691 127.734 61.998 107.2 61.998 c 4
EndSplineSet
EndChar

StartChar: less
Encoding: 60 60 52
Width: 436
Flags: HMW
LayerCount: 2
Back
SplineSet
89.7881 202.563 m 2
 34.3457 238.143 39.0039 267.341 89.7871 299.931 c 2
 357.491 471.73 l 2
 373.95 482.293 395.027 471.49 391.145 450.444 c 2
 381.289 398.613 l 2
 377.463 378.484 365.965 366.951 349.955 359.814 c 2
 137.25 265 l 2
 123.187 258.731 121.651 244.453 137.25 237.5 c 2
 349.956 142.68 l 2
 364.883 136.026 377.464 124.01 381.29 103.881 c 2
 391.147 52.0488 l 2
 395.029 31.0039 373.926 20.2178 357.492 30.7637 c 2
 89.7881 202.563 l 2
EndSplineSet
Fore
SplineSet
77.001 249.857 m 1
 157.636 192.781 280.439 107.681 345.575 77.7314 c 9
 356.285 15 l 17
 301.302 67.0703 165.152 166.832 50 249.997 c 1
 165.151 333.16 301.302 432.93 356.285 485 c 9
 345.575 422.269 l 17
 280.439 392.319 157.636 306.934 77.001 249.857 c 1
EndSplineSet
EndChar

StartChar: greater
Encoding: 62 62 53
Width: 436
Flags: HMW
LayerCount: 2
Back
SplineSet
342.099 202.563 m 2
 91.9072 35.7637 l 6
 75.5947 25.458 56.8271 36.0039 60.4551 57.0488 c 6
 69.667 108.881 l 6
 73.2432 129.01 84.0762 140.959 98.9512 147.68 c 6
 297.742 237.5 l 2
 308.789 243.218 310.65 258.289 297.742 265 c 2
 98.9521 354.814 l 2
 84.0762 361.535 73.2441 373.484 69.668 393.613 c 2
 60.457 445.444 l 2
 56.8291 466.49 75.5957 477.036 91.9082 466.73 c 2
 342.1 299.931 l 2
 390.393 267.734 397.454 239.468 342.099 202.563 c 2
EndSplineSet
Fore
SplineSet
359.284 249.857 m 1
 278.649 306.934 155.846 392.319 90.71 422.269 c 9
 80 485 l 17
 134.983 432.93 271.134 333.16 386.285 249.997 c 1
 271.133 166.832 134.983 67.0703 80 15 c 9
 90.71 77.7314 l 17
 155.846 107.681 278.649 192.781 359.284 249.857 c 1
EndSplineSet
EndChar

StartChar: equal
Encoding: 61 61 54
Width: 517
VWidth: 0
Flags: HMW
LayerCount: 2
Back
SplineSet
415.935 151.997 m 6
 127.925 151.997 l 6
 112.944 151.997 96.3467 161.258 92.6182 174.997 c 6
 86.373 198 l 6
 82.25 213.188 93.8633 225 111.519 225 c 6
 428.418 225 l 6
 449.283 225 460.661 216.087 457.309 199 c 6
 453.385 178.997 l 6
 450.211 162.819 437.335 151.997 415.935 151.997 c 6
415.935 291.997 m 2
 127.925 291.997 l 2
 112.944 291.997 96.3779 301.145 92.6182 314.997 c 2
 86.373 338 l 2
 82.25 353.189 93.8633 365 111.519 365 c 2
 428.418 365 l 2
 449.283 365 460.644 355.999 457.309 339 c 2
 453.385 318.997 l 2
 450.235 302.948 437.335 291.997 415.935 291.997 c 2
EndSplineSet
Fore
SplineSet
258.824 194 m 0
 236.789 194 179 191.5 130 179 c 9
 85 224 l 17
 150.5 211.5 216.677 209 259 208.996 c 0
 281.035 208.996 338.824 211.496 387.824 223.996 c 9
 432.824 178.996 l 17
 367.324 191.496 301.147 193.996 258.824 194 c 0
258.824 314 m 0
 236.789 314 179 311.5 130 299 c 9
 85 344 l 17
 150.5 331.5 216.677 329 259 328.996 c 0
 281.035 328.996 338.824 331.496 387.824 343.996 c 13
 432.824 298.996 l 17
 367.324 311.496 301.147 313.996 258.824 314 c 0
EndSplineSet
EndChar

StartChar: question
Encoding: 63 63 55
Width: 412
Flags: HMW
LayerCount: 2
Back
SplineSet
147 20 m 0
 147 36.5596 160.888 50 178 50 c 0
 195.112 50 209 36.5596 209 20 c 0
 209 3.44043 195.112 -10 178 -10 c 0
 160.888 -10 147 3.44043 147 20 c 0
234.803 117.736 m 0
 287.08 164.193 318.842 232.423 328.47 310.836 c 0
 338.098 389.252 331.421 447.31 298.223 494.34 c 0
 268.223 536.84 223.723 560.84 167.223 560.84 c 0
 113.223 560.84 73.2227 545.84 43.5957 516.541 c 9
 87 470 l 17
 76.6455 517.39 130.224 548.34 182.223 548.34 c 0
 220.723 548.34 255.679 528.086 279.723 494.34 c 0
 308.223 454.34 307.563 384.55 298.513 310.838 c 0
 289.462 237.129 212.585 278.518 169 240 c 0
EndSplineSet
Fore
SplineSet
199.364 255.595 m 1
 199.364 220 201.595 184.619 215.404 157 c 9
 178.404 135 l 17
 183.404 177 183.904 227.967 183.904 271 c 1
 230.594 271.764 263.416 283.101 290.143 315.085 c 0
 308.565 337.133 318.423 370.657 318.423 408.854 c 24
 318.423 447.033 308.404 481 290.143 502.577 c 0
 265.989 531.115 233.991 548.34 198.627 548.34 c 0
 146.628 548.34 93.0498 517.39 103.404 470 c 9
 60 516.541 l 17
 89.627 545.84 129.713 560.873 183.628 560.841 c 0
 233.578 560.811 277.983 547.658 309.654 512.481 c 0
 334.068 485.365 347.904 451.709 347.904 408.5 c 24
 347.904 365.345 334.171 331.897 309.654 304.667 c 0
 281.357 273.237 242.859 259.247 199.364 255.595 c 1
157.204 26 m 4
 157.204 45.8711 173.869 62 194.404 62 c 4
 214.939 62 231.604 45.8711 231.604 26 c 4
 231.604 6.12891 214.939 -10 194.404 -10 c 4
 173.869 -10 157.204 6.12891 157.204 26 c 4
EndSplineSet
EndChar

StartChar: backslash
Encoding: 92 92 56
Width: 418
Flags: HMW
LayerCount: 2
Back
SplineSet
199.061 251.733 m 4
 125.458 130.247 47.4654 4.0041 0 -55 c 13
 61.6641 -39.2646 l 21
 86.2608 28.0744 164.915 163.469 215.301 248.444 c 4
 290.317 369.759 369.971 496.165 418.195 555 c 13
 356.39 539.831 l 21
 331.009 472.275 250.219 336.261 199.061 251.733 c 4
EndSplineSet
Fore
SplineSet
203.285 241.636 m 4
 148.297 323.725 59.1699 454.427 8.66992 505.979 c 9
 21.042 568.405 l 17
 53.9844 499.834 134.884 374.222 213.129 254.965 c 4
 268.85 173.387 358.317 44.8818 408.952 -5.86914 c 13
 397.153 -68.4053 l 21
 363.737 -0.451172 282.282 123.587 203.285 241.636 c 4
EndSplineSet
EndChar

StartChar: bracketleft
Encoding: 91 91 57
Width: 311
Flags: HMW
LayerCount: 2
Back
SplineSet
81.791 433.812 m 2
 82.2227 455.632 85.9053 473.869 99.2461 485.274 c 0
 111.793 496 127.475 500 146.702 500 c 2
122.5 486 m 2
 122.5 512.496 136.5 519.5 157 519.5 c 2
 191.001 519.5 l 2
 205.002 519.5 215.834 528.425 219.001 542.5 c 2
 228.001 582.5 l 2
 231.44 597.788 221 609.5 204.501 609.5 c 2
 75.6211 609.5 l 2
 59.1211 609.5 48.6777 597.786 52.1211 582.5 c 6
 55.5 567.5 l 2
 59.999 547.5 64.002 537.501 64.002 511.005 c 2
 64.002 1.49512 l 2
 64.002 -25.001 59.999 -35 55.5 -55 c 2
 52.1211 -70 l 2
 48.6777 -85.2861 59.1211 -97 75.6211 -97 c 2
 204.501 -97 l 2
 221 -97 231.44 -85.2881 228.001 -70 c 2
 219.001 -30 l 2
 215.834 -15.9248 205.002 -7 191.001 -7 c 2
 157 -7 l 2
 136.5 -7 122.5 0.00390625 122.5 26.5 c 2
 122.5 486 l 2
EndSplineSet
Fore
SplineSet
132.629 548.739 m 1
 119.324 458 116.13 261.396 115 118 c 0
 115 94.2754 112.953 -8.20215 126.898 -52.3916 c 1
 153.362 -51.748 203.387 -47.9531 246.324 -37 c 9
 291.324 -82 l 17
 233.979 -71.0566 175.246 -67.6494 133.324 -67 c 9
 95 -86 l 17
 101.324 -28 100 74.0342 99.8418 117 c 0
 99.8418 208 100.324 441 90 520.688 c 9
 135 565.688 l 17
 202.152 567.618 240.096 572.685 291.308 580 c 9
 246.308 535 l 17
 205.344 542.681 179.001 546.787 132.629 548.739 c 1
EndSplineSet
EndChar

StartChar: bracketright
Encoding: 93 93 58
Width: 311
Flags: HMW
LayerCount: 2
Back
SplineSet
253.324 -56.6885 m 1
 147.852 -57.9541 86.7637 -61.4648 20.0166 -71 c 9
 65.0166 -26 l 17
 120.522 -36.4072 165.31 -40.0273 241.881 -41.0029 c 1
193.824 561 m 0
 171.789 561 114 558.5 65 546 c 9
 20 591 l 17
 85.5 578.5 151.677 576 194 575.996 c 0
216.482 392 m 0
 216.482 301 216.324 68.3115 231.324 -11.6885 c 9
 186.324 -56.6885 l 17
 198.061 25.4678 200.114 237.473 201.324 391 c 0
 201.324 418 199.824 554 155.824 565 c 9
 216.324 595 l 17
 216.324 556.71 216.324 434.966 216.482 392 c 0
245.732 -30.8203 m 2
 245.732 -52.6504 241.331 -70.8691 227.057 -82.2744 c 0
 213.631 -93 196.853 -97 176.278 -97 c 2
 52.5957 -97 l 6
 34.9424 -97 23.7705 -85.2881 27.4512 -70 c 6
 37.0811 -30 l 6
 40.4697 -15.9248 52.0605 -7 67.041 -7 c 6
 146.222 -7 l 2
 168.157 -7 183.137 0.00390625 183.137 26.5 c 2
 183.137 486 l 2
 183.137 512.496 168.157 519.5 146.222 519.5 c 2
 67.041 519.5 l 6
 52.0605 519.5 40.4697 528.425 37.0811 542.5 c 6
 27.4512 582.5 l 6
 23.7705 597.788 34.9424 609.5 52.5957 609.5 c 6
 176.278 609.5 l 2
 196.853 609.5 213.631 605.5 227.057 594.774 c 0
 241.331 583.369 245.732 565.15 245.732 543.32 c 2
 245.732 -30.8203 l 2
EndSplineSet
Fore
SplineSet
178.695 -54.7393 m 1
 192 36 195.194 232.604 196.324 376 c 0
 196.324 399.725 198.371 502.202 184.426 546.392 c 1
 157.962 545.748 107.938 541.953 65 531 c 9
 20 576 l 17
 77.3457 565.057 136.078 561.649 178 561 c 9
 216.324 580 l 17
 210 522 211.324 419.966 211.482 377 c 0
 211.482 286 211 53 221.324 -26.6885 c 9
 176.324 -71.6885 l 17
 109.172 -73.6182 71.2285 -78.6846 20.0166 -86 c 9
 65.0166 -41 l 17
 105.98 -48.6807 132.323 -52.7871 178.695 -54.7393 c 1
EndSplineSet
EndChar

StartChar: grave
Encoding: 96 96 59
Width: 217
Flags: HMW
LayerCount: 2
Back
SplineSet
116.341 474.224 m 0
 109.214 493.179 90.7168 537.104 129 560.31 c 9
 44 581.81 l 17
 67.5 550.81 84.5 518.81 101.301 472.977 c 0
 110.646 447.486 116.429 421.374 114.901 392.757 c 9
 168.899 377 l 17
 147.455 411.818 129.292 439.774 116.341 474.224 c 0
EndSplineSet
Fore
SplineSet
106.209 466.461 m 4
 97.3701 484.681 78.2529 528.339 35.0645 516.556 c 13
 78 593 l 21
 84.2998 554.613 95.7998 520.251 117.469 476.509 c 4
 129.52 452.18 144.475 430.007 166.278 411.41 c 13
 140.524 361.402 l 21
 130.041 400.928 122.273 433.349 106.209 466.461 c 4
EndSplineSet
EndChar

StartChar: afii57645
Encoding: 1470 1470 60
Width: 497
Flags: HMW
LayerCount: 2
Fore
SplineSet
248.824 485 m 0
 226.789 485 169 482.5 120 470 c 9
 75 515 l 17
 140.5 502.5 206.677 500 249 499.996 c 0
 271.035 499.996 328.824 502.496 377.824 514.996 c 9
 422.824 469.996 l 17
 357.324 482.496 291.147 484.996 248.824 485 c 0
EndSplineSet
EndChar

StartChar: uni0000
Encoding: 0 0 61
Width: 700
Flags: HMW
LayerCount: 2
Back
SplineSet
150 550 m 5
 150 -50 l 5
 550 -50 l 5
 550 550 l 5
 150 550 l 5
100 600 m 5
 600 600 l 5
 600 -100 l 5
 100 -100 l 5
 100 600 l 5
EndSplineSet
Fore
SplineSet
130 585 m 1
 130 -85 l 1
 570 -85 l 1
 570 585 l 1
 130 585 l 1
100 600 m 1
 600 600 l 1
 600 -100 l 1
 100 -100 l 1
 100 600 l 1
EndSplineSet
EndChar

StartChar: A
Encoding: 65 65 62
Width: 700
Flags: HMW
LayerCount: 2
Fore
SplineSet
130 585 m 1
 130 -85 l 1
 570 -85 l 1
 570 585 l 1
 130 585 l 1
100 600 m 1
 600 600 l 1
 600 -100 l 1
 100 -100 l 1
 100 600 l 1
EndSplineSet
EndChar

StartChar: SF110000
Encoding: 9474 9474 63
Width: 634
Flags: HMW
LayerCount: 2
Fore
SplineSet
334 750 m 5
 334 -250 l 5
 300 -250 l 1
 300 750 l 1
 334 750 l 5
EndSplineSet
EndChar

StartChar: afii00208
Encoding: 8213 8213 65
Width: 1138
VWidth: 0
Flags: HMW
LayerCount: 2
Back
SplineSet
517.119 254 m 0
 444.403 254 253.7 251.5 92 239 c 9
 47 284 l 17
 263.15 271.5 481.534 269 621.2 268.996 c 0
 693.916 268.996 884.619 271.496 1046.32 283.996 c 9
 1091.32 238.996 l 17
 875.169 251.496 656.785 253.996 517.119 254 c 0
1072.85 221.997 m 6
 90.9424 221.997 l 2
 75.9619 221.997 59.0244 230.922 55.6357 244.997 c 2
 48.8564 273 l 2
 45.1562 288.284 56.3467 300 74.001 300 c 2
 1086.4 300 l 6
 1107.27 300 1118.72 291.15 1115.29 274 c 6
 1110.3 248.997 l 6
 1106.98 232.611 1094.25 221.997 1072.85 221.997 c 6
EndSplineSet
Fore
SplineSet
517.119 254 m 0
 444.403 254 250.7 254.5 89 242 c 9
 49 282 l 17
 265.15 269.5 481.534 269 621.2 268.996 c 0
 693.916 268.996 886.619 269.496 1048.32 281.996 c 9
 1088.32 241.996 l 17
 872.169 254.496 656.785 253.996 517.119 254 c 0
EndSplineSet
EndChar

StartChar: emdash
Encoding: 8212 8212 66
Width: 835
VWidth: 0
Flags: HMW
LayerCount: 2
Back
SplineSet
388.295 254 m 0
 337.614 254 204.7 251.5 92 239 c 13
 47 284 l 17
 197.65 271.5 349.857 269 447.2 268.996 c 0
 497.881 268.996 630.795 271.496 743.495 283.996 c 9
 788.495 238.996 l 21
 637.846 251.496 485.638 253.996 388.295 254 c 0
751.846 221.997 m 2
 90.9424 221.997 l 2
 75.9619 221.997 59.0244 230.922 55.6357 244.997 c 2
 48.8564 273 l 2
 45.1562 288.284 56.3467 300 74.001 300 c 2
 765.4 300 l 2
 786.265 300 797.715 291.15 794.29 274 c 2
 789.296 248.997 l 2
 785.98 232.611 773.246 221.997 751.846 221.997 c 2
EndSplineSet
Fore
SplineSet
388.295 254 m 0
 337.614 254 201.7 254.5 89 242 c 9
 49 282 l 21
 199.65 269.5 349.857 269 447.2 268.996 c 0
 497.881 268.996 632.795 269.496 745.495 281.996 c 13
 785.495 241.996 l 17
 634.846 254.496 485.638 253.996 388.295 254 c 0
EndSplineSet
EndChar

StartChar: endash
Encoding: 8211 8211 67
Width: 588
VWidth: 0
Flags: W
HStem: 242 40<81.9734 252.634 332.576 505.998> 254 14.996<125.745 456.92>
LayerCount: 2
Back
SplineSet
283.399 254 m 0x40
 250.654 254 164.778 251.5 91.9629 239 c 9
 47 284 l 21x80
 144.335 271.5 242.676 269 305.568 268.996 c 0
 338.313 268.996 424.189 271.496 497.005 283.996 c 13
 541.968 238.996 l 17
 444.634 251.496 346.292 253.996 283.399 254 c 0x40
EndSplineSet
Fore
SplineSet
283.399 254 m 0x40
 250.654 254 161.778 254.5 88.9629 242 c 9
 49 282 l 17x80
 146.335 269.5 242.676 269 305.568 268.996 c 0
 338.313 268.996 426.189 269.496 499.005 281.996 c 9
 538.968 241.996 l 17
 441.634 254.496 346.292 253.996 283.399 254 c 0x40
EndSplineSet
EndChar
